<svg xmlns="http://www.w3.org/2000/svg" xmlns:xlink="http://www.w3.org/1999/xlink" viewBox="0 0 841.89 841.89"><defs><linearGradient id="a" x1="-1874.171" x2="-1646.949" y1="390.699" y2="390.699" gradientTransform="translate(2294.527)" gradientUnits="userSpaceOnUse"><stop offset="0" stop-color="#c9f9ff" class="stopColorc9f9ff svgShape"/><stop offset=".138" stop-color="#c3f8ff" class="stopColorc3f8ff svgShape"/><stop offset=".33" stop-color="#b0f4ff" class="stopColorb0f4ff svgShape"/><stop offset=".555" stop-color="#93eeff" class="stopColor93eeff svgShape"/><stop offset=".802" stop-color="#69e5ff" class="stopColor69e5ff svgShape"/><stop offset="1" stop-color="#43ddff" class="stopColor43ddff svgShape"/></linearGradient><linearGradient id="b" x1="-1874.171" x2="-1663.379" y1="395.639" y2="395.639" gradientTransform="translate(2294.527)" gradientUnits="userSpaceOnUse"><stop offset="0" stop-color="#12c2e9" class="stopColor12c2e9 svgShape"/><stop offset="1" stop-color="#7d1edc" class="stopColor7d1edc svgShape"/></linearGradient><linearGradient id="d" x1="-2026.301" x2="-1790.285" y1="189.996" y2="715.669" xlink:href="#a"/><linearGradient id="e" x1="-1777.618" x2="-1541.716" y1="78.416" y2="603.834" xlink:href="#a"/><linearGradient id="c" x1="-1961.054" x2="-1654.88" y1="-30.12" y2="651.811" gradientTransform="translate(2294.527)" gradientUnits="userSpaceOnUse"><stop offset="0" stop-color="#c9f9ff" class="stopColorc9f9ff svgShape"/><stop offset=".288" stop-color="#9aefff" class="stopColor9aefff svgShape"/><stop offset=".61" stop-color="#6be5ff" class="stopColor6be5ff svgShape"/><stop offset=".858" stop-color="#4edfff" class="stopColor4edfff svgShape"/><stop offset="1" stop-color="#43ddff" class="stopColor43ddff svgShape"/></linearGradient><linearGradient id="f" x1="361.973" x2="732.104" y1="495.588" y2="-67.474" xlink:href="#b"/><linearGradient id="g" x1="394.2" x2="764.337" y1="516.779" y2="-46.292" xlink:href="#b"/><linearGradient id="h" x1="472.94" x2="843.081" y1="568.541" y2="5.464" xlink:href="#b"/><linearGradient id="i" x1="387.316" x2="757.42" y1="512.226" y2="-50.795" xlink:href="#b"/><linearGradient id="j" x1="392.682" x2="762.849" y1="515.804" y2="-47.313" xlink:href="#b"/><linearGradient id="k" x1="398.079" x2="768.231" y1="519.338" y2="-43.754" xlink:href="#b"/><linearGradient id="l" x1="403.467" x2="773.626" y1="522.885" y2="-40.219" xlink:href="#b"/><linearGradient id="m" x1="408.864" x2="779.001" y1="526.419" y2="-36.651" xlink:href="#b"/><linearGradient id="n" x1="505.616" x2="875.742" y1="590.018" y2="26.964" gradientUnits="userSpaceOnUse"><stop offset="0" stop-color="#12c2e9" class="stopColor12c2e9 svgShape"/><stop offset=".354" stop-color="#3986e4" class="stopColor3986e4 svgShape"/><stop offset="1" stop-color="#7d1edc" class="stopColor7d1edc svgShape"/></linearGradient><linearGradient id="o" x1="458.718" x2="828.858" y1="559.19" y2="-3.884" xlink:href="#b"/><linearGradient id="p" x1="464.108" x2="834.245" y1="562.733" y2="-.336" xlink:href="#b"/><linearGradient id="q" x1="469.492" x2="839.666" y1="566.285" y2="3.159" xlink:href="#b"/><linearGradient id="r" x1="474.883" x2="845.056" y1="569.827" y2="6.703" xlink:href="#b"/><linearGradient id="s" x1="480.276" x2="850.43" y1="573.366" y2="10.27" xlink:href="#b"/><linearGradient id="t" x1="2820.921" x2="2668.149" y1="264.12" y2="561.056" gradientTransform="matrix(-1 0 0 1 3177.479 0)" gradientUnits="userSpaceOnUse"><stop offset="0" stop-color="#43ddff" class="stopColor43ddff svgShape"/><stop offset=".198" stop-color="#69e5ff" class="stopColor69e5ff svgShape"/><stop offset=".445" stop-color="#93eeff" class="stopColor93eeff svgShape"/><stop offset=".67" stop-color="#b0f4ff" class="stopColorb0f4ff svgShape"/><stop offset=".862" stop-color="#c3f8ff" class="stopColorc3f8ff svgShape"/><stop offset="1" stop-color="#c9f9ff" class="stopColorc9f9ff svgShape"/></linearGradient><linearGradient id="u" x1="2718.873" x2="2797.513" y1="326.84" y2="486.741" gradientTransform="matrix(-1 0 0 1 3177.479 0)" xlink:href="#b"/><linearGradient id="v" x1="2717.066" x2="2795.677" y1="327.744" y2="487.585" gradientTransform="matrix(-1 0 0 1 3177.479 0)" xlink:href="#b"/><linearGradient id="w" x1="2712.9" x2="2791.539" y1="329.778" y2="489.677" gradientTransform="matrix(-1 0 0 1 3177.479 0)" xlink:href="#b"/><linearGradient id="x" x1="2708.75" x2="2787.358" y1="331.844" y2="491.681" gradientTransform="matrix(-1 0 0 1 3177.479 0)" xlink:href="#b"/><linearGradient id="y" x1="2725.381" x2="2804.024" y1="323.638" y2="483.544" gradientTransform="matrix(-1 0 0 1 3177.479 0)" xlink:href="#b"/><linearGradient id="z" x1="2721.219" x2="2799.874" y1="325.68" y2="485.612" gradientTransform="matrix(-1 0 0 1 3177.479 0)" xlink:href="#b"/><linearGradient id="A" x1="381.658" x2="460.298" y1="306.667" y2="466.568" xlink:href="#b"/><linearGradient id="B" x1="371.45" x2="450.092" y1="311.685" y2="471.591" xlink:href="#b"/><linearGradient id="C" x1="2947.093" x2="2796.627" y1="181.958" y2="556.968" gradientTransform="matrix(-1 0 0 1 3177.479 0)" xlink:href="#b"/><linearGradient id="D" x1="287.83" x2="386.56" y1="419.028" y2="504.594" xlink:href="#c"/><linearGradient id="E" x1="290.389" x2="389.115" y1="416.075" y2="501.639" xlink:href="#c"/><linearGradient id="F" x1="292.948" x2="391.676" y1="413.119" y2="498.684" xlink:href="#c"/><linearGradient id="G" x1="295.508" x2="394.235" y1="410.168" y2="495.732" xlink:href="#c"/><linearGradient id="H" x1="298.065" x2="396.794" y1="407.213" y2="492.779" xlink:href="#c"/><linearGradient id="I" x1="2858.616" x2="2687.377" y1="274.729" y2="701.513" gradientTransform="matrix(-1 0 0 1 3177.479 0)" xlink:href="#b"/><linearGradient id="J" x1="387.959" x2="537.504" y1="543.914" y2="683.33" xlink:href="#c"/><linearGradient id="K" x1="388.667" x2="538.211" y1="543.153" y2="682.569" xlink:href="#c"/><linearGradient id="L" x1="396.148" x2="545.696" y1="535.127" y2="674.547" xlink:href="#c"/><linearGradient id="M" x1="389.559" x2="539.102" y1="542.196" y2="681.611" xlink:href="#c"/><linearGradient id="N" x1="393.949" x2="543.49" y1="537.49" y2="676.902" xlink:href="#c"/><linearGradient id="O" x1="401.34" x2="550.896" y1="529.55" y2="668.977" xlink:href="#c"/><linearGradient id="P" x1="400.365" x2="549.935" y1="530.58" y2="670.02" xlink:href="#c"/><linearGradient id="Q" x1="294.402" x2="293.878" y1="641.922" y2="549.652" xlink:href="#a"/><linearGradient id="R" x1="287.949" x2="334.36" y1="602.326" y2="602.326" xlink:href="#a"/><linearGradient id="S" x1="383.695" x2="316.586" y1="610.049" y2="574.397" xlink:href="#a"/></defs><g data-name="Layer 2"><path fill="url(#a)" d="m618.929 183.642-153.324-88.52c-7.967-4.6-15.205-5.021-20.428-1.981-9.723 5.637-6.72 4.237-16.427 9.875a.122.122 0 0 0 .047-.027c-5.197 2.998-8.416 9.376-8.44 18.446v426.697c-.057 18.219 11.584 40.48 27.43 49.622l153.318 88.51c8.195 4.747 15.603 5.048 20.858 1.738-.14.076-.27.175-.413.26 9.7-5.64 6.718-4.241 16.423-9.882 5.16-2.996 9.585-9.371 9.605-18.411V233.262c.047-18.215-12.806-40.469-28.65-49.62Z"/><path fill="url(#b)" d="M602.512 193.52c15.84 9.148 28.696 31.406 28.636 49.624V669.85c-.045 18.197-14.193 25.576-30.043 16.415l-153.318-88.511c-15.846-9.142-27.487-31.403-27.43-49.622V121.436c.045-18.21 12.985-25.578 28.825-16.43Z"/><path d="M532.253 164.724a4.828 4.828 0 0 1 2.177 3.771c0 1.395-.985 1.948-2.197 1.253l-27.569-15.926a4.78 4.78 0 0 1-2.182-3.76c0-1.397.99-1.95 2.197-1.25ZM544.395 170.209a6.72 6.72 0 0 1 3.033 5.264c-.007 1.924-1.375 2.71-3.067 1.737a6.737 6.737 0 0 1-3.03-5.259c.016-1.938 1.38-2.706 3.064-1.742Z" style="mix-blend-mode:multiply" fill="#604be0" opacity=".5" class="color604be0 svgShape"/><path fill="url(#d)" d="M430.593 552.768c0 10.48 7.383 23.26 16.51 28.529-9.127-5.27-16.51-18.049-16.51-28.53Z"/><path fill="url(#e)" d="M565.747 198.118c3.926 2.259 7.514 1.66 9.111-1.56-1.597 3.22-5.185 3.819-9.111 1.56Z"/><path fill="url(#c)" d="M597.667 202.414c12.23 7.69 19.397 25.507 19.372 35.998v421.936c-.031 10.488-7.484 14.739-16.612 9.472l-153.324-88.523c-9.137-5.28-15.33-18.089-15.297-28.592V126.003c.02-10.501 7.48-14.741 16.604-9.47l21.456 12.382a9.267 9.267 0 0 1 3.788 5.026l1.604 5.118c1.563 5.032 5.142 9.778 9.065 12.045l81.424 47.014c3.926 2.259 7.514 1.66 9.111-1.56l1.632-3.247c.671-1.333 2.156-1.594 3.796-.655Z"/><path fill="url(#f)" d="m462.94 247.686 125.405 73.11c6.043 3.492 10.984.674 11.004-6.267l.142-50.402c.022-6.944-4.886-15.439-10.931-18.926l-125.408-73.116c-6.04-3.487-10.984-.676-10.994 6.271l-.144 50.398c-.02 6.953 4.883 15.447 10.925 18.933Z"/><path fill="url(#g)" d="m463.004 403.238 43.68 25.22c6.024 3.476 10.942.672 10.959-6.247l.147-50.192c.017-6.92-4.87-15.382-10.887-18.859l-40.713-23.184c-6.04-3.487-13.93-2.714-13.952 4.206l-.134 50.19c-.026 6.915 4.86 15.386 10.9 18.866Z"/><path fill="url(#h)" d="m588.52 401.096-43.686-25.216c-6.036-3.49-10.964-.687-10.98 6.233l-.14 50.192c-.02 6.916 4.867 15.385 10.9 18.862l43.683 25.22c6.022 3.48 10.942.676 10.96-6.246l.144-50.193c.022-6.913-4.869-15.38-10.881-18.852Z"/><path fill="url(#i)" d="m454.53 263.235 142.42 82.187a1.564 1.564 0 0 0 2.346-1.352 4.76 4.76 0 0 0-2.346-4.089l-142.42-82.127a1.543 1.543 0 0 0-2.323 1.336 4.687 4.687 0 0 0 2.322 4.045Z"/><path fill="url(#j)" d="m454.53 274.978 142.42 82.184a1.563 1.563 0 0 0 2.346-1.348 4.76 4.76 0 0 0-2.346-4.091L454.53 269.59a1.547 1.547 0 0 0-2.323 1.34 4.687 4.687 0 0 0 2.322 4.048Z"/><path fill="url(#k)" d="M454.53 286.72 596.95 368.9a1.559 1.559 0 0 0 2.346-1.344 4.758 4.758 0 0 0-2.346-4.091l-142.42-82.132a1.55 1.55 0 0 0-2.323 1.344 4.685 4.685 0 0 0 2.322 4.042Z"/><path fill="url(#l)" d="m454.53 298.467 142.42 82.181a1.562 1.562 0 0 0 2.346-1.35 4.741 4.741 0 0 0-2.346-4.085l-142.42-82.136a1.547 1.547 0 0 0-2.323 1.34 4.698 4.698 0 0 0 2.322 4.05Z"/><path fill="url(#m)" d="m454.53 310.212 142.42 82.179a1.56 1.56 0 0 0 2.346-1.344 4.75 4.75 0 0 0-2.346-4.089l-142.42-82.134a1.545 1.545 0 0 0-2.323 1.34 4.694 4.694 0 0 0 2.322 4.048Z"/><path fill="url(#n)" d="m588.56 558.148-125.408-73.115c-6.04-3.49-10.984-.676-10.994 6.272l-.144 50.395c-.02 6.954 4.883 15.445 10.925 18.934l125.406 73.11c6.043 3.49 10.984.674 11.004-6.27l.142-50.4c.022-6.945-4.886-15.44-10.931-18.926Z"/><path fill="url(#o)" d="m596.95 495.565-142.42-82.13a1.545 1.545 0 0 0-2.323 1.34 4.69 4.69 0 0 0 2.322 4.046l142.421 82.184a1.562 1.562 0 0 0 2.346-1.35 4.76 4.76 0 0 0-2.346-4.09Z"/><path fill="url(#p)" d="m596.95 507.31-142.42-82.135a1.55 1.55 0 0 0-2.323 1.344 4.688 4.688 0 0 0 2.322 4.045l142.421 82.18a1.56 1.56 0 0 0 2.346-1.349 4.75 4.75 0 0 0-2.346-4.084Z"/><path fill="url(#q)" d="m596.95 519.054-142.42-82.132a1.546 1.546 0 0 0-2.323 1.34 4.7 4.7 0 0 0 2.322 4.048l142.421 82.175a1.558 1.558 0 0 0 2.346-1.344 4.756 4.756 0 0 0-2.346-4.087Z"/><path fill="url(#r)" d="m596.95 530.797-142.42-82.134a1.546 1.546 0 0 0-2.323 1.338 4.709 4.709 0 0 0 2.322 4.054l142.421 82.181a1.564 1.564 0 0 0 2.346-1.352 4.748 4.748 0 0 0-2.346-4.087Z"/><path fill="url(#s)" d="m596.95 542.54-142.42-82.132a1.544 1.544 0 0 0-2.323 1.34 4.69 4.69 0 0 0 2.322 4.046l142.421 82.184a1.563 1.563 0 0 0 2.346-1.35 4.754 4.754 0 0 0-2.346-4.088Z"/><path fill="url(#t)" d="M474.767 322.901c6.936 4.005 12.224 13.717 12.196 21.697v149.1c-.013 7.963-5.664 11.184-12.606 7.185L355.31 432.305c-6.943-3.996-12.543-13.71-12.528-21.69V261.513c.033-7.979 5.99-11.2 12.93-7.19Z" opacity=".91"/><path fill="url(#u)" d="M372.266 367.155c-3.863-2.236-7.013-.434-7.027 3.992l-.086 32.138a15.407 15.407 0 0 0 6.976 12.077l85.358 49.019c3.856 2.223 7.005.43 7.016-3.996l.094-32.139a15.4 15.4 0 0 0-6.973-12.074Z"/><path fill="url(#v)" d="m461.977 375.495-37.213-21.425a4.19 4.19 0 0 1-2.08-3.619 1.384 1.384 0 0 1 2.08-1.197l37.21 21.38a4.239 4.239 0 0 1 2.106 3.657 1.395 1.395 0 0 1-2.103 1.204Z"/><path fill="url(#w)" d="m461.977 386.002-37.213-21.427a4.192 4.192 0 0 1-2.08-3.619 1.384 1.384 0 0 1 2.08-1.196l37.21 21.382a4.231 4.231 0 0 1 2.106 3.655 1.397 1.397 0 0 1-2.103 1.205Z"/><path fill="url(#x)" d="m461.977 396.508-37.213-21.426a4.196 4.196 0 0 1-2.08-3.62 1.385 1.385 0 0 1 2.08-1.198l37.21 21.38a4.246 4.246 0 0 1 2.106 3.656 1.4 1.4 0 0 1-2.103 1.208Z"/><path fill="url(#y)" d="m461.977 354.484-37.213-21.425a4.202 4.202 0 0 1-2.08-3.622 1.384 1.384 0 0 1 2.08-1.195l37.21 21.38a4.238 4.238 0 0 1 2.106 3.655 1.398 1.398 0 0 1-2.103 1.207Z"/><path fill="url(#z)" d="m461.977 364.991-37.213-21.427a4.193 4.193 0 0 1-2.08-3.62 1.384 1.384 0 0 1 2.08-1.197l37.21 21.384a4.228 4.228 0 0 1 2.106 3.651 1.4 1.4 0 0 1-2.103 1.21Z"/><path fill="url(#A)" d="M390.23 313.572c5.03 2.905 9.091 9.94 9.078 15.721-.019 5.77-4.105 8.113-9.14 5.209-5.019-2.898-9.095-9.955-9.077-15.724.017-5.778 4.116-8.103 9.14-5.206Z"/><path fill="url(#B)" d="M398.083 338.094a48.205 48.205 0 0 1 8.599 25.007c.045 1.09-.488 1.784-1.346 1.689-2.347-.28-7.586-1.375-15.238-5.792a70.806 70.806 0 0 1-15.208-11.787 4.746 4.746 0 0 1-1.34-3.237c.44-8.421 3.851-13.881 8.709-15.014a23.274 23.274 0 0 0 7.903 8.233c3.076 1.777 5.864 1.977 7.921.9Z"/><path fill="url(#C)" d="M271.11 370.981c-4.597-2.662-8.345-.518-8.364 4.747l-.102 62.419c-.014 5.263 3.706 11.717 8.3 14.37l133.592 75.947c4.589 2.652 8.339.513 8.349-4.756l.11-62.413c.014-5.274-3.706-11.722-8.294-14.367Z" opacity=".8"/><g opacity=".5"><path fill="url(#D)" d="m303.943 422.449-.324 7.773 5.861.763 1.05 4.521-6.132-1.552 3.958 8.326-2.889.736-3.533-8.567-3.537 4.281-2.877-3.968 4.119-3.806-6.034-5.468 1.099-3.207 5.969 6.101-.28-7.984 3.55 2.051z"/><path fill="url(#E)" d="m321.813 432.762-.33 7.775 5.867.769 1.048 4.515-6.101-1.533 3.922 8.306-2.886.743-3.535-8.57-3.536 4.28-2.872-3.965 4.108-3.805-5.994-5.457 1.07-3.221 5.969 6.099-.282-7.981 3.552 2.045z"/><path fill="url(#F)" d="m339.676 443.076-.322 7.775 5.892.782 1.053 4.52-6.134-1.549 3.926 8.304-2.858.764-3.561-8.588-3.507 4.298-2.878-3.97 4.086-3.82-6.007-5.456 1.105-3.201 5.94 6.079-.282-7.983 3.547 2.045z"/><path fill="url(#G)" d="m357.55 453.397-.33 7.771 5.894.784 1.054 4.515-6.135-1.545 3.927 8.307-2.86.756-3.53-8.57-3.537 4.281-2.877-3.965 4.112-3.803-6.034-5.477 1.106-3.202 5.939 6.083-.253-7.965 3.524 2.03z"/><path fill="url(#H)" d="m375.414 463.712-.298 7.79 5.866.764 1.049 4.516-6.13-1.544 3.926 8.305-2.859.765-3.528-8.575-3.539 4.277-2.874-3.964 4.111-3.802-6.033-5.472 1.104-3.208 5.969 6.102-.281-7.986 3.517 2.032z"/></g><path fill="url(#I)" d="M368.534 488.71c-5.538-3.2-10.05-.62-10.073 5.72l-.121 75.164c-.018 6.341 4.464 14.11 9.998 17.304l145.396 83.312c5.526 3.19 10.04.618 10.051-5.726l.136-75.162c.013-6.347-4.467-14.112-9.99-17.297Z" opacity=".8"/><g opacity=".8"><path fill="url(#J)" d="M395.499 537.323a16.752 16.752 0 0 1 4.271 3.5 16.505 16.505 0 0 1 2.959 4.587 11.951 11.951 0 0 1 1.052 4.8l-3.98-2.3a7.184 7.184 0 0 0-1.107-3.88 9.09 9.09 0 0 0-3.227-3.037c-1.315-.759-2.332-1.039-3.067-.817-.7.234-1.072.917-1.074 2.061a5.376 5.376 0 0 0 1.163 3.097 26.779 26.779 0 0 0 3.85 4.126 37.616 37.616 0 0 1 4.315 4.59 17.114 17.114 0 0 1 2.38 4.049 10.985 10.985 0 0 1 .736 4.008c-.006 2.206-.737 3.516-2.223 3.973-1.461.469-3.454-.039-5.978-1.497a19.66 19.66 0 0 1-4.584-3.71 17.504 17.504 0 0 1-3.247-4.809 12.112 12.112 0 0 1-1.156-5.022l3.986 2.299a7.633 7.633 0 0 0 1.3 4.245 10.713 10.713 0 0 0 3.714 3.37c1.382.799 2.425 1.065 3.13.833.712-.238 1.053-.906 1.055-1.964a5.554 5.554 0 0 0-1.061-3.3 26.41 26.41 0 0 0-3.834-4.136 36.697 36.697 0 0 1-4.41-4.698c-2.106-2.728-3.147-5.311-3.14-7.737.01-2.124.764-3.446 2.275-3.973 1.527-.478 3.502-.046 5.902 1.342Z"/><path fill="url(#K)" d="m407.122 570.891.063-19.645 3.86 2.237-.061 19.636-3.862-2.228z"/><path fill="url(#L)" d="M409.133 549.581a4.207 4.207 0 0 1-1.602-1.592 3.836 3.836 0 0 1-.553-1.973c0-.694.174-1.153.563-1.375.365-.236.898-.149 1.607.252a4.256 4.256 0 0 1 1.6 1.6 3.992 3.992 0 0 1 .576 2.033 1.354 1.354 0 0 1-.589 1.31c-.362.236-.922.139-1.602-.255Z"/><path fill="url(#M)" d="m426.166 562.214 3.448 1.986-.053 19.053c-.008 2.567-.714 4.203-2.108 4.88-1.408.692-3.28.337-5.663-1.033a15.548 15.548 0 0 1-3.658-3.01 14.902 14.902 0 0 1-2.716-3.911l1.802-1.618a11.706 11.706 0 0 0 4.365 4.924c1.291.746 2.285.927 3.017.57.752-.38 1.124-1.308 1.124-2.874l.004-1.312c-1.12.78-2.578.634-4.427-.428a12.623 12.623 0 0 1-4.893-5.564 19.137 19.137 0 0 1-1.893-8.695c.005-3.072.64-5.137 1.885-6.237 1.273-1.108 2.922-1.047 4.989.144a11.694 11.694 0 0 1 4.584 4.993Zm-.426 13.89.027-8.649a7.921 7.921 0 0 0-3.421-4.207c-1.26-.728-2.235-.705-2.943.03-.706.741-1.049 2.244-1.057 4.48a12.37 12.37 0 0 0 1.032 5.259 7.127 7.127 0 0 0 2.907 3.383c1.555.9 2.695.805 3.455-.297Z"/><path fill="url(#N)" d="M442.217 571.117c3.57 2.06 5.36 5.439 5.42 10.167l-.036 12.972-3.84-2.215.037-12.72a6.84 6.84 0 0 0-.69-3.198 5.87 5.87 0 0 0-2.311-2.22c-1.552-.902-2.696-.748-3.452.437l-.036 13.978-3.866-2.233.055-19.64 3.62 2.09.116 2.327q1.899-1.54 4.983.255Z"/><path fill="url(#O)" d="m476.86 584.66-.051 17.688c-.012 2.79-.794 4.572-2.377 5.307-1.557.745-3.648.35-6.244-1.144a17.585 17.585 0 0 1-6.284-6.062 14.926 14.926 0 0 1-2.286-8.056l.048-17.66 3.985 2.302-.054 17.688a9.339 9.339 0 0 0 1.158 4.717 8.825 8.825 0 0 0 3.444 3.409c3.058 1.77 4.617.796 4.625-2.936l.051-17.552Z"/><path fill="url(#P)" d="M493.924 603.65a19.168 19.168 0 0 1 1.753 8.445l-.006.28c-.006 3.041-.618 5.113-1.814 6.243-1.199 1.127-2.82 1.078-4.84-.084a11.928 11.928 0 0 1-4.51-4.726l-.022 9.318-3.838-2.215.075-27.202 3.545 2.043.136 2.066c1.149-.9 2.68-.8 4.628.323a12.254 12.254 0 0 1 4.893 5.51Zm-3.121 10.692c.681-.755 1.056-2.243 1.058-4.56a12.772 12.772 0 0 0-1.006-5.248 7.084 7.084 0 0 0-2.906-3.413c-1.578-.908-2.724-.811-3.407.273l-.02 8.73a7.773 7.773 0 0 0 3.413 4.259c1.212.706 2.186.681 2.868-.041Z"/></g><path fill="#236696" d="M326.64 733.188a7.945 7.945 0 0 0 5.017 3.052c2.204.472 9.474 1.366 9.474 1.366 3.607.448 7.98 1.592 8.66 5.133a11.44 11.44 0 0 1 .127 2.371c-.451 1.98-2.379 2.762-4.718 3.588a60.864 60.864 0 0 1-7.909 2.19 28.03 28.03 0 0 1-10.715.212 59.17 59.17 0 0 0-6.014-.742c-1.918-.006-1.594 1.397-1.812 3.195l-6.107 1.583c-6.1.794-10.144-4.703-9.975-6.09l1.652-13.412Z" class="color236696 svgShape"/><path fill="#236696" d="M313.72 719.849s.5 3.537 3.928 3.842c2.12.19 5.172.282 5.172.282 3.627-.681 8.162-.615 9 2.077a5.491 5.491 0 0 1 .325 1.63c-.195 1.99.506.324-2.21 2.75a64.19 64.19 0 0 1-8.35 5.386c-4 1.9-6.076 1.96-7.365 1.817a17.314 17.314 0 0 0-4.211-.303c-1.798.215-1.335 2.493-1.335 4.263l-5.527 2.295c-5.632 1.485-10.042-3.389-10.042-4.756v-14.227Z" class="color236696 svgShape"/><path fill="#dbe4ec" d="M296.96 646.89c.16 2.482 3.595 3.895 5.847 3.756.784-.045 1.544 4.556 2.798 6.216a2.054 2.054 0 0 0 3.407-.024c.209-.433-2.28-7.072-2.841-8.775-1.87-5.647-4.203-5.708-6.452-5.58-2.247.14-2.903 1.94-2.758 4.408Z" class="colordbe4ec svgShape"/><path fill="url(#Q)" d="M297.292 641.813c-2.525.05-7.498-4.731-7.498-4.731s-.116-.623-.31-1.714c-1.107-6.165-6.036-27.184-6.379-34.942-.365-8.551 2.754-31.199 2.754-31.199s1.284-19.114 14.233-18.742c7.834.242 3.908 11.502 4.07 18.359.123 5.378-2.316 32.774-2.316 32.774l2.119 33.597s-1.714 6.491-6.673 6.598Z"/><path fill="#dbe4ec" d="m293.883 642.918 6.494-.475 2.92 7.536.084 1.267-.377 10.117a5.05 5.05 0 0 1-4.967 5.247c-3.373.25-.372.034-.372.034-4.62.338-5.348-4.619-5.348-4.619l-1.988-12.904c-.265-2.762.581-5.995 3.554-6.203Z" class="colordbe4ec svgShape"/><path fill="#b6c7d9" d="M305.383 642.615c.034 1.139-2.426 3.412-5.748 3.793-4.33.485-6.384-.285-6.384-.285-2.01-.66-3.125-1.415-3.313-2.826 0 0-.729-5.207-.862-6.862-.112-1.059.408-1.067.408-1.067a4.692 4.692 0 0 0 .288 1.14c.671 1.09 2.561 2.544 6.81 2.59 6.692.076 7.383-3.883 7.383-3.883.98-.014 1.307.405 1.283 1.536Z" class="colorb6c7d9 svgShape"/><path fill="#dbe4ec" d="M290.093 642.648s-3.032-14.25 14.613-14.25c13.98 0 13.98 14.84 13.98 14.84l-7.06 85.455H294.16Z" class="colordbe4ec svgShape"/><path fill="#ffffff" d="m324.809 509.009 11.989 1.47-5.014 30.85c-1.267 8.864-5.132 9.91-7.837 9.71-5.612-.422-11.577-4.083-14.553-6.194-5.769-4.1-4.797-14.501-4.785-15.347l-.244-20.9Z" class="colorfff svgShape"/><path fill="#ffffff" d="m302.092 550.825 3.23-18.596 15.63 3.635-2.014 18.058c0 2.572 9.767 24.775 9.767 32.763l-29.539-9.497c0-3.404 2.926-26.363 2.926-26.363Z" class="colorfff svgShape"/><path fill="#526683" d="M323.286 620.225v8.172a155.188 155.188 0 0 1-1.454 16.38l-27.941 1.058c-3.508-.706-4.847-5.509-4.847-10.347v-15.263Z" class="color526683 svgShape"/><path fill="#dbe4ec" d="M290.093 642.648s1.162-9.902 13.478-9.902c1.636 0 0-.021 4.85 0 11.77.027 13.411 12.03 13.411 12.03l-7.327 83.579-18.694.338Z" class="colordbe4ec svgShape"/><path fill="#236696" d="M334.36 506.09c6.47 4.233 5.706 9.783.817 13.343-2.233 1.61-4.383 6.057-5.062 9.492l-.673 3.234c-.04 1.19-1.765 2.819-2.49 1.017-.815-2.025.955-3.67.564-5.769-.268-1.42-4.326-3.93-6.697 6.172l-1.619 5.049c-2.622 5.655-7.468 5.655-10.915 4.645 0 0-3.432-1.211-5.045-3.021a73.786 73.786 0 0 1-6.135-12.68c-4.172-15.215 3.712-33.606 26.543-26.742a38.577 38.577 0 0 1 10.712 5.26Z" class="color236696 svgShape"/><path fill="#09beeb" d="m321.706 635.56-.754 97.705a26.4 26.4 0 0 1-16.975 5.927c-5.922 0-11.716-3.824-11.87-5.471l-3.522-99.871Z" class="color09beeb svgShape"/><path fill="#36d7f2" d="m329.715 645.546-1.716 86.602c.05-.042.197 2.119 1.106 2.628.895.5.858 2.326.406 3.54-.604 1.612-6.264 10.613-18.189 10.005-3.634-.177-7.909-1.567-8.082-3.136l-5.956-99.6Z" class="color36d7f2 svgShape"/><path fill="url(#R)" d="M329.574 567.27c3.462 3.545 4.786 7.507 4.786 20.025l-1.181 57.022c0 2.173.176 8.659-6.898 9.472-3.527.398-10.077 2.618-17.996-.033-3.228-1.06-20.203-8.883-20.203-13.469l-.133-64.338c.536-21.764 12.925-26.334 12.925-26.334l14.898 5.205Z"/><path fill="#e4eff4" d="M303.772 545.3c-2.098-.491-2.626-.142-3.025 1.141a26.176 26.176 0 0 1-.882 2.565c-.402 1.006.073 1.08.073 1.08s10.503 2.898 18.327 8.222c5.548 3.784 5.972 4.141 5.972 4.141l-1.29-4.261c-1.014-3.648-5.22-7.226-11.488-9.998a63.48 63.48 0 0 0-7.687-2.89Z" class="colore4eff4 svgShape"/><path fill="#ffffff" d="m383.057 602.29-1.747-7.528.857-1.846 10.71-3.576 12.06.072s2.458 0 2.458 1.788c0 .968-2.311 1.132-7.372.968-2.384-.072-1.561 1.571-1.561 1.571.653 3.801.947 7.072 0 8.703a4.162 4.162 0 0 1-4.836 2.076c-.232-.09-.22-.962-.22-.962-4.987 1.414-9.714 2.108-10.35-1.266Z" class="colorfff svgShape"/><path fill="url(#S)" d="M387.52 598.61a15.12 15.12 0 0 1-1.214 7.284s-23.849 4.512-27.08 5.048c-4.66.783-6.878.2-11.188-1.49-7.957-3.096-24.791-18.32-24.791-18.32s-12.126-9.7-8.288-19.6c2.828-7.302 12.054-7.185 16.774-2.226 4.404 4.62 14.458 15.823 20.099 21.373a9.625 9.625 0 0 0 7.889 2.727l22.34-1.463a3.727 3.727 0 0 1 3.848 1.015c.984.97 1.54 3.92 1.612 5.651Z"/></g></svg>