<svg xmlns="http://www.w3.org/2000/svg" xmlns:xlink="http://www.w3.org/1999/xlink" enable-background="new 0 0 1200 900" viewBox="0 0 1200 900"><path fill="#edf5fc" d="M1081.56 698.482c4.815-7.661 8.519-16.17 11.355-23.318 13.208-33.29 8.331-72.938-16.25-101.11-26.865-30.788-70.476-45.601-112.89-54.816-42.414-9.214-86.617-14.498-125.493-32.256-38.875-17.757-72.386-52.052-70.714-91.088 1.46-34.061 28.885-64.502 27.685-98.571-1.06-30.082-25.146-56.566-54.544-71.177-29.397-14.61-63.537-19.31-96.978-22.458-68.214-6.422-138.68-7.205-203.69 12.366-65.012 19.57-124.215 62.395-145.362 120.795-14.736 40.693-10.44 85.897-28.868 125.367-20.035 42.91-64.202 73.297-88.064 114.608-21.463 37.156-24.37 82.278-8.898 121.658h912.71z" class="coloredf5fc svgShape"/><path fill="#e4f0fd" d="M878.95 644.55c0 .81-.33 1.54-.86 2.08-.53.53-1.26.86-2.08.86H764.84c-1.62 0-2.93-1.32-2.93-2.94 0-.81.33-1.54.86-2.08.53-.53 1.26-.86 2.07-.86h111.17c1.63 0 2.94 1.32 2.94 2.94zM878.95 656.699c0 .81-.33 1.54-.86 2.08-.53.53-1.26.86-2.08.86H764.84c-1.62 0-2.93-1.32-2.93-2.94 0-.81.33-1.54.86-2.08.53-.53 1.26-.86 2.07-.86h111.17c1.63 0 2.94 1.32 2.94 2.94z" class="colore4f0fd svgShape"/><path fill="#829ed9" d="M814.359 669.872v5.31c0 12.86-10.43 23.3-23.3 23.3h-478.28c-12.87 0-23.28-10.44-23.28-23.3v-5.31c0-3.97 3.21-7.19 7.18-7.19h510.48c3.97 0 7.2 3.22 7.2 7.19z" class="color829ed9 svgShape"/><path fill="#9bb2e1" d="M838.014 391.127c-2.002 0-4.026-.032-6.014-.093a.5.5 0 0 1-.484-.516c.008-.275.207-.48.515-.484 1.979.061 3.991.093 5.983.093a.5.5 0 1 1 0 1zm5.998-.092a.5.5 0 0 1-.016-1c1.975-.06 3.985-.152 5.978-.274a.507.507 0 0 1 .529.47.5.5 0 0 1-.469.528c-2.002.123-4.022.215-6.007.275h-.015zm-17.988-.28h-.032c-2.003-.126-4.02-.284-5.997-.47a.5.5 0 0 1-.451-.545.511.511 0 0 1 .545-.451c1.966.185 3.972.342 5.966.467a.5.5 0 0 1-.03 1zm29.961-.45a.5.5 0 0 1-.045-.998 201.79 201.79 0 0 0 5.95-.632.5.5 0 0 1 .12.993 205.76 205.76 0 0 1-6.025.637zm-41.907-.677a.54.54 0 0 1-.063-.004c-1.995-.253-3.998-.54-5.955-.853a.5.5 0 0 1 .158-.987c1.946.311 3.94.597 5.922.848a.5.5 0 0 1-.062.996zm53.815-.767a.5.5 0 0 1-.075-.994c1.949-.296 3.935-.626 5.904-.983a.5.5 0 0 1 .178.984c-1.978.359-3.974.69-5.931.987a.5.5 0 0 1-.076.006zm-65.66-1.127a.489.489 0 0 1-.096-.01c-1.961-.38-3.942-.798-5.888-1.242-.27-.062-.438-.33-.376-.599s.327-.442.599-.376c1.935.442 3.905.858 5.854 1.236a.5.5 0 0 1-.094.99zm77.462-1.016a.5.5 0 0 1-.102-.989c1.94-.41 3.902-.857 5.835-1.325.28-.068.539.101.604.369a.5.5 0 0 1-.368.603c-1.942.47-3.915.919-5.864 1.332a.506.506 0 0 1-.105.01zm-89.162-1.66a.506.506 0 0 1-.128-.016c-1.931-.51-3.88-1.06-5.79-1.637a.5.5 0 1 1 .29-.957c1.899.572 3.835 1.12 5.756 1.627a.5.5 0 0 1-.128.984zm100.824-1.165a.5.5 0 0 1-.131-.983c1.916-.524 3.85-1.082 5.75-1.66a.5.5 0 0 1 .291.957 209.952 209.952 0 0 1-5.778 1.668.515.515 0 0 1-.132.018zm-112.311-2.295a.496.496 0 0 1-.16-.026 176.737 176.737 0 0 1-5.663-2.03.499.499 0 1 1 .351-.935 174.527 174.527 0 0 0 5.632 2.018.5.5 0 0 1-.16.973zm123.789-1.2a.5.5 0 0 1-.16-.975c1.882-.632 3.781-1.302 5.646-1.99a.5.5 0 0 1 .346.939c-1.874.69-3.783 1.363-5.673 2a.503.503 0 0 1-.16.025zm-135.014-3.016a.496.496 0 0 1-.19-.038c-1.84-.755-3.7-1.55-5.528-2.363a.5.5 0 0 1 .407-.914c1.819.81 3.67 1.6 5.5 2.353a.5.5 0 0 1-.189.962zm146.273-1.137a.5.5 0 0 1-.187-.964 203.892 203.892 0 0 0 5.52-2.313.5.5 0 1 1 .4.916 204.349 204.349 0 0 1-5.547 2.325.503.503 0 0 1-.186.036zm-571.312-.356a.434.434 0 0 1-.061-.004c-1.99-.244-3.995-.527-5.96-.843a.501.501 0 0 1-.414-.573.504.504 0 0 1 .573-.414c1.952.313 3.944.595 5.922.838a.499.499 0 0 1-.06.996zm-11.847-1.902a.48.48 0 0 1-.097-.01 156.262 156.262 0 0 1-5.88-1.29.5.5 0 1 1 .234-.973c1.922.461 3.888.893 5.841 1.283a.5.5 0 0 1-.098.99zm425.93-1.478a.497.497 0 0 1-.216-.048 220.159 220.159 0 0 1-5.385-2.67.5.5 0 0 1 .457-.89c1.782.914 3.586 1.808 5.36 2.657a.5.5 0 0 1-.216.951zm168.228-1.06a.5.5 0 0 1-.213-.953c1.792-.844 3.601-1.73 5.377-2.63a.5.5 0 1 1 .453.892 207.334 207.334 0 0 1-5.404 2.643.493.493 0 0 1-.213.047zm-605.823-.264a.482.482 0 0 1-.135-.019 148.415 148.415 0 0 1-5.76-1.753.5.5 0 1 1 .31-.95c1.881.614 3.806 1.2 5.721 1.741a.5.5 0 0 1-.136.981zm-11.402-3.732a.507.507 0 0 1-.176-.031 140.167 140.167 0 0 1-5.591-2.233.5.5 0 0 1 .39-.92c1.82.773 3.689 1.518 5.553 2.216a.5.5 0 0 1-.176.968zm438.338-.407a.498.498 0 0 1-.24-.061 234.93 234.93 0 0 1-5.228-2.945.5.5 0 1 1 .502-.866 233.111 233.111 0 0 0 5.205 2.933.5.5 0 0 1-.239.939zm189.59-1.028a.5.5 0 0 1-.24-.939c1.745-.95 3.5-1.94 5.214-2.941a.499.499 0 1 1 .504.863c-1.723 1.007-3.486 2-5.239 2.956a.498.498 0 0 1-.24.061zm-638.969-3.259a.49.49 0 0 1-.216-.05 129.96 129.96 0 0 1-5.37-2.728.5.5 0 1 1 .475-.881c1.743.938 3.535 1.849 5.327 2.708a.5.5 0 0 1-.216.951zm439.017-1.721a.496.496 0 0 1-.261-.074 258.331 258.331 0 0 1-5.087-3.198.5.5 0 1 1 .541-.84 259.305 259.305 0 0 0 5.067 3.186.5.5 0 0 1-.26.926zm210.316-1.072a.5.5 0 0 1-.265-.924c1.678-1.048 3.37-2.14 5.03-3.247a.5.5 0 1 1 .554.832 200.741 200.741 0 0 1-5.054 3.263.494.494 0 0 1-.265.076zm-659.895-2.897a.492.492 0 0 1-.257-.072 119.765 119.765 0 0 1-5.08-3.238.5.5 0 1 1 .558-.83 119.341 119.341 0 0 0 5.037 3.212.5.5 0 0 1-.258.928zm439.495-2.53a.499.499 0 0 1-.28-.085 283.693 283.693 0 0 1-4.947-3.42.5.5 0 0 1 .576-.817 292.254 292.254 0 0 0 4.931 3.409.5.5 0 0 1-.28.914zm230.382-1.236a.5.5 0 0 1-.29-.907 196.744 196.744 0 0 0 4.82-3.546.5.5 0 1 1 .606.796 199.402 199.402 0 0 1-4.846 3.565.5.5 0 0 1-.29.092zm-679.822-2.937a.497.497 0 0 1-.3-.1 113.024 113.024 0 0 1-4.718-3.748.5.5 0 1 1 .642-.766 112.266 112.266 0 0 0 4.677 3.715.5.5 0 0 1-.3.9zm439.631-2.755a.497.497 0 0 1-.296-.098 325.345 325.345 0 0 1-4.813-3.612.5.5 0 1 1 .607-.794c1.591 1.216 3.19 2.417 4.799 3.6a.5.5 0 0 1-.297.904zm249.746-1.566a.499.499 0 0 1-.314-.889 188.129 188.129 0 0 0 4.59-3.838.5.5 0 0 1 .655.757 190.196 190.196 0 0 1-4.616 3.859.5.5 0 0 1-.315.111zm-698.557-3.393a.499.499 0 0 1-.343-.136 103.204 103.204 0 0 1-4.267-4.258.5.5 0 0 1 .727-.687 103.02 103.02 0 0 0 4.225 4.217.5.5 0 0 1-.342.864zm439.262-2.34a.497.497 0 0 1-.31-.108 382.757 382.757 0 0 1-4.69-3.775.5.5 0 0 1 .633-.774c1.55 1.269 3.11 2.524 4.678 3.765a.5.5 0 0 1-.31.892zm268.377-2.107a.5.5 0 0 1-.339-.868c1.472-1.354 2.931-2.74 4.337-4.121a.5.5 0 0 1 .701.713 188.746 188.746 0 0 1-4.36 4.144.5.5 0 0 1-.339.132zm-715.88-4.268a.5.5 0 0 1-.382-.178 104.441 104.441 0 0 1-3.747-4.723.5.5 0 0 1 .801-.599 103.412 103.412 0 0 0 3.711 4.678.5.5 0 0 1-.383.822zm438.194-1.237a.497.497 0 0 1-.323-.117 452.525 452.525 0 0 1-4.578-3.91.5.5 0 1 1 .655-.756 450.55 450.55 0 0 0 4.568 3.901.5.5 0 0 1-.322.882zm286.248-2.899a.5.5 0 0 1-.361-.845c1.364-1.43 2.73-2.908 4.057-4.393a.5.5 0 0 1 .746.667 185.228 185.228 0 0 1-4.08 4.417.496.496 0 0 1-.362.154zm-295.345-4.97a.5.5 0 0 1-.332-.126 583.672 583.672 0 0 1-4.481-4.02.5.5 0 0 1 .671-.741 547.186 547.186 0 0 0 4.474 4.013.5.5 0 0 1-.332.874zm-436.27-.506a.502.502 0 0 1-.42-.224 100.548 100.548 0 0 1-3.165-5.132.5.5 0 1 1 .867-.5 99.668 99.668 0 0 0 3.135 5.081.5.5 0 0 1-.417.775zm739.604-3.467a.5.5 0 0 1-.384-.82 178.334 178.334 0 0 0 3.754-4.653.5.5 0 0 1 .79.615 179.499 179.499 0 0 1-3.776 4.678.498.498 0 0 1-.384.18zm-312.245-4.106a.501.501 0 0 1-.34-.133 667.66 667.66 0 0 1-4.4-4.106.5.5 0 1 1 .685-.729 665.818 665.818 0 0 0 4.395 4.1.5.5 0 0 1-.34.868zm-433.349-2.818a.498.498 0 0 1-.447-.278 96.377 96.377 0 0 1-2.52-5.48.5.5 0 0 1 .922-.388 95.029 95.029 0 0 0 2.493 5.423.5.5 0 0 1-.448.723zm752.961-2.531a.498.498 0 0 1-.404-.794 179.657 179.657 0 0 0 3.429-4.9.501.501 0 0 1 .828.56 174.63 174.63 0 0 1-3.448 4.927.498.498 0 0 1-.405.207zm-328.373-2.894a.498.498 0 0 1-.346-.138 938.077 938.077 0 0 1-4.335-4.171.5.5 0 1 1 .696-.719 936.35 936.35 0 0 0 4.33 4.167.5.5 0 0 1-.345.861zm-429.25-5.625c-.208 0-.401-.13-.472-.335a90.426 90.426 0 0 1-1.795-5.76.5.5 0 0 1 .964-.265 90.307 90.307 0 0 0 1.774 5.695.5.5 0 0 1-.472.665zm420.61-2.738a.497.497 0 0 1-.35-.142c-1.432-1.401-2.86-2.807-4.288-4.216a.5.5 0 0 1 .703-.712c1.426 1.408 2.854 2.813 4.284 4.213a.5.5 0 0 1-.35.857zm-8.555-8.445a.497.497 0 0 1-.353-.145 2901.92 2901.92 0 0 1-4.257-4.242.5.5 0 0 1 .708-.708c1.416 1.416 2.834 2.83 4.254 4.24a.5.5 0 0 1-.352.855zm-415.234-.379a.5.5 0 0 1-.49-.4 85.488 85.488 0 0 1-.987-5.952.501.501 0 0 1 .992-.129 84.69 84.69 0 0 0 .976 5.882.5.5 0 0 1-.49.599zm406.732-8.11a.498.498 0 0 1-.354-.146l-4.244-4.25a.5.5 0 1 1 .707-.707l4.244 4.25a.5.5 0 0 1-.353.854zm-408.266-3.778a.5.5 0 0 1-.498-.472 82.081 82.081 0 0 1-.107-6.038c.006-.276.27-.478.512-.489a.5.5 0 0 1 .488.511 67.96 67.96 0 0 0-.017 1.546c.001 1.486.042 2.962.122 4.414a.5.5 0 0 1-.5.528zm399.78-4.72a.498.498 0 0 1-.354-.147l-4.247-4.242a.5.5 0 1 1 .705-.708l4.25 4.243a.5.5 0 0 1-.354.854zm-399.543-7.268c-.016 0-.033 0-.048-.002a.5.5 0 0 1-.451-.544c.186-1.98.449-3.993.78-5.983a.5.5 0 0 1 .986.164 84.133 84.133 0 0 0-.77 5.912.5.5 0 0 1-.497.453zm391.04-1.207a.496.496 0 0 1-.352-.145 1578.29 1578.29 0 0 0-4.268-4.214.5.5 0 1 1 .7-.713c1.426 1.403 2.85 2.809 4.271 4.217a.5.5 0 0 1-.351.855zm-8.556-8.413a.496.496 0 0 1-.349-.142 1048.906 1048.906 0 0 0-4.305-4.17.5.5 0 1 1 .693-.721c1.44 1.387 2.877 2.779 4.31 4.174a.5.5 0 0 1-.349.859zm-380.52-2.206a.5.5 0 0 1-.486-.616 90.303 90.303 0 0 1 1.595-5.817.5.5 0 0 1 .955.297 89.57 89.57 0 0 0-1.578 5.752.5.5 0 0 1-.487.384zm371.882-6.112a.496.496 0 0 1-.343-.138 840.424 840.424 0 0 0-4.362-4.11.5.5 0 0 1 .684-.73 824.178 824.178 0 0 1 4.366 4.115.5.5 0 0 1-.345.863zm-368.338-5.342a.5.5 0 0 1-.467-.678 97.647 97.647 0 0 1 2.323-5.564.5.5 0 1 1 .91.413 98.687 98.687 0 0 0-2.299 5.507.499.499 0 0 1-.467.322zm359.579-2.846a.496.496 0 0 1-.338-.131 624.208 624.208 0 0 0-4.431-4.029.5.5 0 1 1 .67-.743 614.498 614.498 0 0 1 4.436 4.035.5.5 0 0 1-.337.868zm-8.909-8.016a.498.498 0 0 1-.33-.124 488.74 488.74 0 0 0-4.518-3.928.5.5 0 0 1 .652-.759 498.054 498.054 0 0 1 4.526 3.936.5.5 0 0 1-.33.875zm-345.72-.06a.5.5 0 0 1-.443-.734c.93-1.763 1.927-3.53 2.962-5.249a.5.5 0 1 1 .858.516 105.207 105.207 0 0 0-2.935 5.2.5.5 0 0 1-.442.267zm336.627-7.745a.496.496 0 0 1-.32-.116 411.365 411.365 0 0 0-4.62-3.806.5.5 0 0 1 .631-.776c1.552 1.26 3.094 2.53 4.629 3.814a.5.5 0 0 1-.32.884zm-330.442-2.53a.5.5 0 0 1-.413-.781c1.12-1.647 2.306-3.291 3.524-4.889a.5.5 0 1 1 .795.606 111.228 111.228 0 0 0-3.493 4.845.5.5 0 0 1-.413.218zm321.136-5.02a.502.502 0 0 1-.31-.108 341.479 341.479 0 0 0-4.733-3.66.5.5 0 1 1 .605-.796 359.703 359.703 0 0 1 4.747 3.67.5.5 0 0 1-.31.893zm-313.861-4.518a.499.499 0 0 1-.381-.823c1.293-1.52 2.647-3.03 4.025-4.486a.5.5 0 1 1 .727.687 113.419 113.419 0 0 0-3.99 4.446.497.497 0 0 1-.381.176zm304.319-2.73a.496.496 0 0 1-.295-.097 326.75 326.75 0 0 0-4.863-3.49.5.5 0 0 1 .576-.817 328.651 328.651 0 0 1 4.877 3.5.5.5 0 0 1-.295.904zm-296.075-5.985a.5.5 0 0 1-.345-.863c.821-.782 1.652-1.55 2.495-2.306a129.19 129.19 0 0 1 1.975-1.734.5.5 0 1 1 .652.758 118.582 118.582 0 0 0-4.433 4.006.498.498 0 0 1-.344.139zm286.267-.911a.495.495 0 0 1-.279-.086 286.375 286.375 0 0 0-4.999-3.293.5.5 0 1 1 .541-.84 288.4 288.4 0 0 1 5.017 3.304.5.5 0 0 1-.28.915zm-10.089-6.491a.5.5 0 0 1-.26-.074 251.822 251.822 0 0 0-5.142-3.067.5.5 0 1 1 .502-.865 253.928 253.928 0 0 1 5.163 3.08.5.5 0 0 1-.263.926zm-267.088-.426a.5.5 0 0 1-.308-.894c1.558-1.218 3.18-2.43 4.825-3.6a.5.5 0 1 1 .58.814 134.442 134.442 0 0 0-4.79 3.574.496.496 0 0 1-.307.106zm256.712-5.597a.501.501 0 0 1-.24-.062 249.322 249.322 0 0 0-5.282-2.82.5.5 0 1 1 .46-.887 249.27 249.27 0 0 1 5.304 2.831.5.5 0 0 1-.242.938zm-246.942-1.364a.501.501 0 0 1-.273-.92c1.659-1.076 3.38-2.144 5.115-3.172a.5.5 0 0 1 .51.86 148.177 148.177 0 0 0-5.08 3.151.497.497 0 0 1-.272.08zm236.291-4.163a.496.496 0 0 1-.22-.05 253.621 253.621 0 0 0-5.407-2.571.5.5 0 0 1 .418-.908c1.823.84 3.65 1.708 5.429 2.58a.501.501 0 0 1-.22.949zm-225.973-1.954a.5.5 0 0 1-.238-.94 164.684 164.684 0 0 1 5.345-2.765.5.5 0 0 1 .443.897c-1.79.885-3.578 1.81-5.311 2.748a.505.505 0 0 1-.239.06zm215.078-3.07a.5.5 0 0 1-.2-.042 257.61 257.61 0 0 0-5.52-2.317.5.5 0 1 1 .377-.927c1.853.753 3.718 1.536 5.542 2.326a.5.5 0 0 1-.2.96zm-204.326-2.25a.5.5 0 0 1-.206-.955 182.023 182.023 0 0 1 5.525-2.383.5.5 0 0 1 .38.924 180.134 180.134 0 0 0-5.493 2.37.5.5 0 0 1-.206.044zm193.21-2.268c-.06 0-.119-.01-.177-.033a262.493 262.493 0 0 0-5.622-2.063.5.5 0 1 1 .334-.943c1.891.67 3.79 1.367 5.643 2.072a.5.5 0 0 1-.178.967zm-182.119-2.307a.5.5 0 0 1-.176-.968c1.846-.694 3.75-1.377 5.66-2.032a.501.501 0 0 1 .325.946 202.355 202.355 0 0 0-5.633 2.022.503.503 0 0 1-.176.032zm170.81-1.699a.498.498 0 0 1-.156-.025 264.269 264.269 0 0 0-5.71-1.807.501.501 0 0 1 .29-.957c1.914.582 3.841 1.192 5.732 1.814a.5.5 0 0 1-.156.975zm-159.46-2.192a.5.5 0 0 1-.148-.978 227.061 227.061 0 0 1 5.765-1.711.5.5 0 1 1 .271.962c-1.934.546-3.865 1.12-5.739 1.704a.505.505 0 0 1-.148.023zm147.98-1.3a.498.498 0 0 1-.135-.018 266.95 266.95 0 0 0-5.786-1.549.5.5 0 1 1 .248-.968c1.947.498 3.9 1.02 5.807 1.554a.5.5 0 0 1-.135.982zm-136.432-1.968a.5.5 0 0 1-.124-.984 247.904 247.904 0 0 1 5.842-1.42.5.5 0 0 1 .225.975 252.747 252.747 0 0 0-5.82 1.413.496.496 0 0 1-.123.016zm124.805-1.005a.504.504 0 0 1-.113-.013 270.842 270.842 0 0 0-5.849-1.29.5.5 0 0 1-.386-.59.493.493 0 0 1 .591-.388c1.96.41 3.934.844 5.87 1.293a.5.5 0 0 1-.113.988zm-113.114-1.689a.5.5 0 0 1-.1-.99c1.958-.402 3.944-.785 5.903-1.14a.501.501 0 0 1 .178.985c-1.952.352-3.93.735-5.88 1.135a.512.512 0 0 1-.1.01zm101.37-.763a.504.504 0 0 1-.094-.008c-1.941-.36-3.925-.706-5.898-1.027a.5.5 0 1 1 .16-.987c1.98.322 3.973.669 5.922 1.03a.5.5 0 0 1-.09.992zm-89.562-1.374a.5.5 0 0 1-.076-.994c1.96-.307 3.962-.597 5.949-.861a.51.51 0 0 1 .56.43.499.499 0 0 1-.43.56c-1.977.264-3.971.553-5.925.86a.526.526 0 0 1-.078.005zm77.716-.551a.486.486 0 0 1-.07-.005c-1.976-.277-3.956-.53-5.94-.763a.5.5 0 0 1-.437-.555.491.491 0 0 1 .555-.439c1.99.234 3.976.49 5.96.767a.5.5 0 0 1-.068.995zm-65.823-1.031a.5.5 0 0 1-.053-.997c1.983-.217 3.996-.414 5.982-.586a.5.5 0 1 1 .086.996c-1.98.171-3.984.368-5.96.584a.531.531 0 0 1-.055.003zm53.907-.365c-.016 0-.032 0-.047-.003a273.488 273.488 0 0 0-5.968-.498.5.5 0 1 1 .072-.997c1.983.143 4 .311 5.99.5a.5.5 0 0 1-.047.998zm-41.95-.668a.5.5 0 0 1-.032-.999c1.99-.126 4.01-.23 6.002-.31a.492.492 0 0 1 .52.479.5.5 0 0 1-.479.52c-1.985.08-3.997.184-5.98.31h-.032zm29.98-.197h-.024c-1.989-.1-4.003-.176-5.983-.23a.5.5 0 0 1 .027-1c1.989.054 4.009.132 6.005.231a.5.5 0 0 1-.024 1zm-17.991-.288a.5.5 0 0 1-.01-1c1.578-.028 3.156-.042 4.733-.042l1.278.003a.5.5 0 0 1-.002 1h-.002l-1.274-.003c-1.571 0-3.143.014-4.715.042h-.008z" class="color9bb2e1 svgShape"/><path fill="#829ed9" d="M794.699 357.892v304.77h-485.55v-304.77c0-9.79 7.94-17.73 17.71-17.73h450.13c9.78 0 17.71 7.94 17.71 17.73z" class="color829ed9 svgShape"/><path fill="#ffffff" d="M787.063 662.676v-304.8c0-5.566-4.512-10.078-10.077-10.078h-450.13c-5.565 0-10.077 4.512-10.077 10.077v304.801h470.284z" class="colorfff svgShape"/><path fill="#5d81c1" d="m608.126 662.676-7.192 12.186a5.702 5.702 0 0 1-4.91 2.804h-88.205a5.702 5.702 0 0 1-4.91-2.804l-7.192-12.186h112.409z" class="color5d81c1 svgShape"/><path fill="#719bff" d="M762.187 259.879v363.413c0 7.46-6.05 13.5-13.51 13.5h-393.5c-7.46 0-13.51-6.04-13.51-13.5V259.88c0-7.46 6.05-13.51 13.51-13.51h393.5c7.46 0 13.51 6.05 13.51 13.51z" class="color719bff svgShape"/><path fill="#ffffff" d="M354.76 630.792c-4.141 0-7.51-3.364-7.51-7.5V259.879c0-4.141 3.369-7.51 7.51-7.51h393.5c4.14 0 7.51 3.369 7.51 7.51v363.413c0 4.136-3.37 7.5-7.51 7.5h-393.5z" class="colorfff svgShape"/><path d="M713.069 596.86H395.148a8.565 8.565 0 0 1-8.565-8.565V329.762a8.565 8.565 0 0 1 8.565-8.566h317.921a8.565 8.565 0 0 1 8.565 8.566v258.533a8.565 8.565 0 0 1-8.565 8.565z" opacity=".04" fill="#000000" class="color000 svgShape"/><path fill="#3cd278" d="M366.208 266.879c0 2.741-2.226 4.985-4.976 4.985-2.741 0-4.967-2.244-4.967-4.985a4.972 4.972 0 1 1 9.943 0z" class="color3cd278 svgShape"/><path fill="#ffc837" d="M380.726 266.879c0 2.741-2.226 4.985-4.976 4.985-2.741 0-4.967-2.244-4.967-4.985a4.972 4.972 0 1 1 9.943 0z" class="colorffc837 svgShape"/><path fill="#ff5252" d="M395.244 266.879c0 2.741-2.226 4.985-4.976 4.985-2.741 0-4.968-2.244-4.968-4.985a4.972 4.972 0 1 1 9.944 0z" class="colorff5252 svgShape"/><path fill="#0039b2" d="M897.923 446.097v247.108c0 7.863-6.398 14.267-14.26 14.267h-137.58c-7.857 0-14.249-6.404-14.249-14.267V446.097c0-7.87 6.392-14.248 14.249-14.248h137.58c7.862 0 14.26 6.379 14.26 14.248z" class="color0039b2 svgShape"/><path fill="#ffffff" d="M746.088 702.243c-4.98 0-9.03-4.055-9.03-9.04V446.102c0-4.985 4.05-9.04 9.03-9.04h137.577c4.983 0 9.039 4.055 9.039 9.04v247.101c0 4.985-4.056 9.04-9.04 9.04H746.089z" class="colorfff svgShape"/><circle cx="796.261" cy="444.079" r="1.974" fill="#0039b2" class="color0039b2 svgShape"/><path fill="#0039b2" d="M835.474 444.133c0 .578-.473 1.04-1.051 1.04H801.86a1.045 1.045 0 0 1-1.051-1.04c0-.578.473-1.052 1.051-1.052h32.562c.578 0 1.051.474 1.051 1.052z" class="color0039b2 svgShape"/><path fill="#e4f0fd" d="M710.47 594.23H392.55a8.565 8.565 0 0 1-8.566-8.566V327.131a8.565 8.565 0 0 1 8.565-8.565H710.47a8.565 8.565 0 0 1 8.566 8.565v258.533a8.565 8.565 0 0 1-8.566 8.566z" class="colore4f0fd svgShape"/><path d="M622.836 492.668H483.5c-8.435 0-15.272-6.838-15.272-15.272 0-8.435 6.837-15.272 15.272-15.272h139.336c8.435 0 15.272 6.837 15.272 15.272 0 8.434-6.837 15.272-15.272 15.272zM622.836 533.964H483.5c-8.435 0-15.272-6.837-15.272-15.272 0-8.434 6.837-15.272 15.272-15.272h139.336c8.435 0 15.272 6.838 15.272 15.272 0 8.435-6.837 15.272-15.272 15.272zM599.018 559.993a15.262 15.262 0 0 1-15.27 15.27h-61.16c-8.44 0-15.27-6.84-15.27-15.27 0-4.22 1.71-8.04 4.47-10.81 2.76-2.76 6.58-4.47 10.8-4.47h61.16c8.43 0 15.27 6.84 15.27 15.28z" opacity=".04" fill="#000000" class="color000 svgShape"/><circle cx="553.322" cy="394.889" r="51.164" opacity=".15" fill="#000000" class="color000 svgShape"/><circle cx="549.697" cy="391.326" r="51.164" fill="#ffffff" class="colorfff svgShape"/><defs><circle id="a" cx="549.697" cy="391.326" r="51.164"/></defs><use fill="#ffffff" overflow="visible" xlink:href="#a" class="colorfff svgShape"/><clipPath id="b"><use overflow="visible" xlink:href="#a"/></clipPath><g clip-path="url(#b)"><path fill="#ff5252" d="M523.568 452.959c-.973-22.319-1.145-49.219 3.423-52.289 16.289-10.943 41.362-8.072 47.076-4.796 9.367 5.372 6.985 47.827 6.03 57.085h-56.53z" class="colorff5252 svgShape"/><path fill="#ff5252" d="M533.588 443.8c2.502-6.433 3.974-22.106 4.01-25.224.142-12.33-7.59-19.725-10.607-17.906-6.48 4.639-17.092 21.337-20.84 34.189-.546 2.211 26.891 11.152 27.437 8.941zM568.534 439.404c-2.502-6.434-3.974-22.106-4.01-25.224-.142-12.33 6.277-20.261 9.293-18.442 6.481 4.639 18.406 21.872 22.154 34.725.546 2.21-26.891 11.152-27.437 8.941z" class="colorff5252 svgShape"/><path fill="#ffffff" d="M529.19 443.164c.065-.078.405.33 1.316.545a3.08 3.08 0 0 0 1.687-.093c.64-.213 1.25-.754 1.643-1.598.35-.705.534-1.509.702-2.325a86.385 86.385 0 0 0 1.194-7.441c.497-3.921.646-5.88.81-5.873.13.004.237 1.982-.142 5.95a87.11 87.11 0 0 1-1.203 7.5c-.172.826-.36 1.682-.76 2.489-.467.953-1.282 1.626-2.075 1.829a3.27 3.27 0 0 1-1.966-.053c-1.003-.37-1.248-.915-1.206-.93zM581.19 432.557c-.154-.02-.07-1.348.047-4.018.143-2.26.164-4.528.061-6.79-.068-2.67-.125-4 .033-4.016.135-.016.447 1.292.64 3.986a63.075 63.075 0 0 1-.063 6.862c-.242 2.693-.58 3.995-.718 3.976z" class="colorfff svgShape"/><path fill="#ffc6b2" d="M557.687 386.924c-1.175 1.356-.625 4.11-.594 6.638.807 3.395-11.032 4.697-12.719.509.93-3.74.755-8.78-.224-12.666-.979-3.886 13.537 5.519 13.537 5.519z" class="colorffc6b2 svgShape"/><path fill="#ffc6b2" d="M544.151 381.402h-.009c-.047-.066-.084-.121-.131-.168.056.056.103.112.14.168z" class="colorffc6b2 svgShape"/><path fill="#ffffff" d="M542.515 394.35s7.042 6.799 7.176 6.8c.022-.079 3.132-4.75 3.132-4.75l-7.983-5.044c-.012.09-2.325 2.994-2.325 2.994zM552.775 396.535s3.456 3.065 3.48 3.14c.144.46 3.727-6.667 3.727-6.667l-2.967-1.228-4.192 4.62" class="colorfff svgShape"/><path fill="#ffc6b2" d="M558.267 387.605c-5.547 2.875-11.314-2.857-13.553-5.515-.225-.26-.422-.503-.563-.688a1.104 1.104 0 0 0-.14-.168c-.01-.01-.019-.028-.038-.046-.14-.186-.215-.298-.215-.298-.01-.019-.066-.046-.15-.083-.812-.352-4.586-1.764-3.369-5.415.682-2.11 4.72.01 4.72.01s2.02-7.88 5.554-8.192c3.524-.321 9.428 4.45 9.428 4.45s.142.512.275 1.333c.096.54.21 1.22.316 1.985.594 4.157.993 10.926-2.265 12.627z" class="colorffc6b2 svgShape"/><path d="M564.288 367.213c.507.782 5.028 2.704 2.907 6.527-.444.804-1.609 1.2-3.175 1.318-1.026.078-2.21.036-3.488-.08a53.55 53.55 0 0 0-.316-1.985c-.133-.82-.275-1.333-.275-1.333s-5.904-4.771-9.428-4.45c-3.533.312-5.555 8.192-5.555 8.192s-4.037-2.12-4.719-.01c-1.217 3.651 2.557 5.063 3.37 5.415.14.14.261.26.364.38.02.02.029.038.038.047.056.056.103.112.14.168h-.009c-8.446-1.423-12.25-18-6.897-23.196 4.497-4.354 11.954-.55 15.807-.22 3.853.33 8.715-6.254 12.244-5.148 3.548 1.114-.216 6.92.507 8.074.722 1.154 1.848.338 2.864 2.806 1.008 2.467-4.876 2.714-4.379 3.495z" fill="#000000" class="color000 svgShape"/><path d="M544.958 375.402s1.496-2.899 3.773-4.277c.165-.1 11.274 2.93 12.171.151.898-2.777-.604-6.834-.604-6.834s-5.061-2.094-5.69-2.19c-.627-.097-8.41 2.938-9.037 3.139-.626.2-2.893 3.38-2.893 3.38l2.106 6.544M550.854 386.762c.046-.073.545.238 1.63.65a9.227 9.227 0 0 0 2.866.647c1.156.093 1.74.028 1.75.115.011.057-.566.254-1.772.22a9.561 9.561 0 0 1-2.968-.669c-1.104-.488-1.541-.914-1.506-.963z" fill="#000000" class="color000 svgShape"/></g><path fill="#719bff" d="M621.178 489.954H481.841c-8.434 0-15.272-6.837-15.272-15.272 0-8.434 6.838-15.272 15.272-15.272h139.337c8.434 0 15.272 6.838 15.272 15.272 0 8.435-6.838 15.272-15.272 15.272zM621.178 531.25H481.841c-8.434 0-15.272-6.837-15.272-15.271 0-8.435 6.838-15.272 15.272-15.272h139.337c8.434 0 15.272 6.837 15.272 15.272 0 8.434-6.838 15.271-15.272 15.271z" class="color719bff svgShape"/><path fill="#3cd278" d="M597.36 557.279a15.262 15.262 0 0 1-15.27 15.27h-61.16c-8.44 0-15.27-6.84-15.27-15.27 0-4.22 1.71-8.04 4.47-10.81 2.76-2.76 6.58-4.47 10.8-4.47h61.16c8.43 0 15.27 6.84 15.27 15.28z" class="color3cd278 svgShape"/><path fill="#ffffff" d="M536.063 476.886h-52.156a2.204 2.204 0 1 1 0-4.408h52.156a2.204 2.204 0 0 1 0 4.408zM564.184 476.886h-20.15a2.204 2.204 0 1 1 0-4.408h20.15a2.204 2.204 0 0 1 0 4.408zM510.282 522.101a1.103 1.103 0 0 1-.368-.834c0-.108.219-1.546.653-4.313-2.172 1.764-3.311 2.672-3.417 2.727-.163.081-.341.12-.53.12-.46 0-.828-.203-1.1-.608a1.282 1.282 0 0 1-.162-.65c0-.463.19-.787.57-.978l4.07-1.587-4.07-1.586c-.38-.217-.57-.557-.57-1.018 0-.244.053-.46.163-.651.271-.407.625-.61 1.06-.61.188 0 .377.055.569.163.106.055 1.245.964 3.417 2.725-.434-2.766-.653-4.203-.653-4.313 0-.324.123-.602.368-.832.245-.23.53-.346.854-.346s.61.115.854.346c.245.23.368.508.368.832 0 .11-.219 1.547-.652 4.313 2.168-1.761 3.307-2.67 3.417-2.725.135-.108.324-.162.57-.162.433 0 .787.202 1.059.609.106.217.162.42.162.61 0 .463-.192.814-.57 1.059l-4.069 1.586 4.07 1.587c.377.217.569.557.569 1.017 0 .19-.056.394-.162.61-.272.406-.64.61-1.1.61-.192 0-.367-.04-.53-.12-.109-.056-1.248-.964-3.416-2.728.433 2.767.652 4.205.652 4.313 0 .326-.123.604-.368.834-.245.23-.53.346-.854.346s-.61-.115-.854-.346zM530.469 522.101a1.103 1.103 0 0 1-.368-.834c0-.108.219-1.546.652-4.313-2.172 1.764-3.31 2.672-3.417 2.727-.162.081-.34.12-.53.12-.46 0-.827-.203-1.099-.608a1.282 1.282 0 0 1-.162-.65c0-.463.189-.787.57-.978l4.069-1.587-4.07-1.586c-.38-.217-.569-.557-.569-1.018 0-.244.053-.46.162-.651.272-.407.626-.61 1.06-.61.189 0 .377.055.57.163.105.055 1.244.964 3.416 2.725-.433-2.766-.652-4.203-.652-4.313 0-.324.123-.602.368-.832.245-.23.53-.346.854-.346.324 0 .61.115.854.346.245.23.368.508.368.832 0 .11-.219 1.547-.653 4.313 2.17-1.761 3.308-2.67 3.417-2.725.136-.108.325-.162.57-.162.434 0 .788.202 1.06.609.105.217.162.42.162.61 0 .463-.192.814-.57 1.059l-4.07 1.586 4.07 1.587c.378.217.57.557.57 1.017 0 .19-.057.394-.163.61-.271.406-.639.61-1.099.61-.192 0-.367-.04-.53-.12-.109-.056-1.248-.964-3.417-2.728.434 2.767.653 4.205.653 4.313 0 .326-.123.604-.368.834a1.21 1.21 0 0 1-.854.346 1.21 1.21 0 0 1-.854-.346zM550.655 522.101a1.103 1.103 0 0 1-.367-.834c0-.108.218-1.546.652-4.313-2.172 1.764-3.31 2.672-3.417 2.727-.162.081-.34.12-.53.12-.46 0-.827-.203-1.099-.608a1.282 1.282 0 0 1-.162-.65c0-.463.189-.787.57-.978l4.069-1.587-4.07-1.586c-.38-.217-.57-.557-.57-1.018 0-.244.054-.46.163-.651.272-.407.626-.61 1.06-.61.188 0 .377.055.57.163.105.055 1.244.964 3.416 2.725-.434-2.766-.652-4.203-.652-4.313 0-.324.122-.602.367-.832.245-.23.53-.346.855-.346.324 0 .609.115.854.346.245.23.367.508.367.832 0 .11-.218 1.547-.652 4.313 2.169-1.761 3.308-2.67 3.417-2.725.136-.108.325-.162.57-.162.433 0 .788.202 1.06.609.105.217.161.42.161.61 0 .463-.192.814-.57 1.059l-4.068 1.586 4.069 1.587c.377.217.57.557.57 1.017 0 .19-.057.394-.163.61-.271.406-.639.61-1.1.61-.191 0-.367-.04-.529-.12-.11-.056-1.248-.964-3.417-2.728.434 2.767.652 4.205.652 4.313 0 .326-.122.604-.367.834a1.21 1.21 0 0 1-.854.346 1.21 1.21 0 0 1-.855-.346zM570.842 522.101a1.103 1.103 0 0 1-.367-.834c0-.108.218-1.546.652-4.313-2.172 1.764-3.311 2.672-3.417 2.727-.162.081-.341.12-.53.12-.46 0-.828-.203-1.1-.608a1.282 1.282 0 0 1-.161-.65c0-.463.188-.787.57-.978l4.068-1.587-4.069-1.586c-.38-.217-.57-.557-.57-1.018 0-.244.054-.46.163-.651.271-.407.626-.61 1.06-.61.188 0 .377.055.569.163.106.055 1.245.964 3.417 2.725-.434-2.766-.652-4.203-.652-4.313 0-.324.122-.602.367-.832.245-.23.53-.346.854-.346s.61.115.855.346c.245.23.367.508.367.832 0 .11-.218 1.547-.652 4.313 2.169-1.761 3.308-2.67 3.417-2.725.136-.108.324-.162.57-.162.433 0 .787.202 1.059.609.106.217.162.42.162.61 0 .463-.192.814-.57 1.059l-4.069 1.586 4.07 1.587c.377.217.57.557.57 1.017 0 .19-.057.394-.163.61-.272.406-.64.61-1.1.61-.191 0-.367-.04-.53-.12-.108-.056-1.247-.964-3.416-2.728.434 2.767.652 4.205.652 4.313 0 .326-.122.604-.367.834-.245.23-.53.346-.855.346s-.609-.115-.854-.346zM591.029 522.101a1.103 1.103 0 0 1-.368-.834c0-.108.219-1.546.653-4.313-2.172 1.764-3.311 2.672-3.417 2.727-.163.081-.341.12-.53.12-.46 0-.828-.203-1.1-.608a1.282 1.282 0 0 1-.162-.65c0-.463.19-.787.57-.978l4.07-1.587-4.07-1.586c-.38-.217-.57-.557-.57-1.018 0-.244.053-.46.163-.651.271-.407.625-.61 1.06-.61.188 0 .377.055.569.163.106.055 1.245.964 3.417 2.725-.434-2.766-.653-4.203-.653-4.313 0-.324.123-.602.368-.832.245-.23.53-.346.854-.346s.61.115.854.346c.245.23.368.508.368.832 0 .11-.219 1.547-.652 4.313 2.168-1.761 3.307-2.67 3.417-2.725.135-.108.324-.162.57-.162.433 0 .787.202 1.059.609.106.217.162.42.162.61 0 .463-.192.814-.57 1.059l-4.069 1.586 4.07 1.587c.377.217.569.557.569 1.017 0 .19-.056.394-.162.61-.272.406-.64.61-1.1.61-.192 0-.367-.04-.53-.12-.109-.056-1.248-.964-3.416-2.728.433 2.767.652 4.205.652 4.313 0 .326-.123.604-.368.834s-.53.346-.854.346-.61-.115-.854-.346zM535.632 561.117h-4.462v-7.904a.88.88 0 0 0-.268-.644c-.35-.353-.948-.35-1.285.002a.895.895 0 0 0-.258.642v8.558c0 .317.115.592.34.818s.501.34.818.34h5.115a.894.894 0 0 0 .64-.257.868.868 0 0 0 .272-.642c0-.25-.09-.467-.268-.646a.887.887 0 0 0-.644-.267zM545.129 552.925c-.79-.462-1.723-.697-2.77-.697-1.048 0-1.982.235-2.777.697a4.801 4.801 0 0 0-1.853 1.929c-.43.808-.657 1.748-.677 2.801.02 1.044.248 1.983.677 2.792a4.81 4.81 0 0 0 1.853 1.929c.794.462 1.728.696 2.777.696 1.048 0 1.98-.234 2.77-.696a4.867 4.867 0 0 0 1.852-1.935c.434-.815.664-1.752.685-2.795-.02-1.034-.251-1.97-.685-2.786a4.867 4.867 0 0 0-1.852-1.935zm-2.77 8.423c-.727 0-1.36-.162-1.879-.482a3.194 3.194 0 0 1-1.197-1.31c-.278-.557-.42-1.198-.42-1.905s.142-1.349.42-1.906c.276-.55.679-.991 1.197-1.31.52-.32 1.152-.482 1.88-.482.717 0 1.347.162 1.87.482.525.32.93.76 1.205 1.31.278.557.42 1.199.42 1.906s-.142 1.348-.42 1.904a3.18 3.18 0 0 1-1.204 1.31c-.524.32-1.154.483-1.872.483zM557.212 556.91h-2.838a.822.822 0 0 0-.595.247.823.823 0 0 0-.246.594c0 .232.083.432.246.595a.823.823 0 0 0 .595.246h2.127v2.207a4.975 4.975 0 0 1-2.27.535c-.76 0-1.422-.161-1.972-.479a3.22 3.22 0 0 1-1.26-1.297c-.29-.552-.438-1.19-.438-1.893 0-.77.157-1.438.465-1.989a3.093 3.093 0 0 1 1.275-1.248c.547-.286 1.172-.432 1.857-.432.501 0 .97.065 1.399.192s.864.322 1.313.589c.36.18.785.108 1.034-.152a.827.827 0 0 0 .236-.59c0-.16-.041-.31-.122-.446a.73.73 0 0 0-.284-.285 7.498 7.498 0 0 0-1.676-.79c-.584-.19-1.272-.286-2.044-.286-.971 0-1.869.23-2.666.681a4.961 4.961 0 0 0-1.903 1.925c-.462.823-.695 1.775-.695 2.83 0 1.036.224 1.975.665 2.792a4.805 4.805 0 0 0 1.882 1.928c.804.457 1.732.688 2.76.688 1.158 0 2.305-.28 3.406-.83.204-.096.373-.246.5-.445.127-.2.191-.426.191-.675v-3.27a.91.91 0 0 0-.275-.666.913.913 0 0 0-.667-.276zM564.266 552.571a.895.895 0 0 0-.258.642v8.89c0 .25.088.464.26.636.17.171.391.262.638.262a.893.893 0 0 0 .64-.257.868.868 0 0 0 .272-.642v-8.889a.88.88 0 0 0-.267-.644c-.35-.353-.95-.35-1.285.002zM577.12 552.568c-.358-.355-.948-.351-1.286.003a.895.895 0 0 0-.258.642v6.98l-5.099-7.362c-.27-.352-.602-.53-.99-.53h-.187c-.328 0-.612.12-.842.356a1.173 1.173 0 0 0-.345.844v8.601c0 .25.088.466.261.638.34.342.928.342 1.278.004a.868.868 0 0 0 .272-.642v-6.994l5.126 7.403a1.224 1.224 0 0 0 .964.49h.172c.326 0 .61-.117.845-.346.237-.23.356-.514.356-.84v-8.602c0-.25-.09-.467-.268-.645z" class="colorfff svgShape"/><path fill="#d7e7ff" d="M872.544 500.086c-2.348 14.53-13.853 68.438-56.221 89.61a3.282 3.282 0 0 1-2.885 0c-42.368-21.172-53.864-75.08-56.221-89.61-.313-1.912 1.104-3.642 3.032-3.783 29.512-2.052 46.11-19.111 52.077-26.668a3.258 3.258 0 0 1 5.11 0c5.966 7.557 22.564 24.616 52.076 26.668 1.928.14 3.346 1.871 3.032 3.783z" class="colord7e7ff svgShape"/><path d="M814.362 585.727c-16.838-8.678-30.448-23.349-40.454-44.722-7.567-16.164-11.048-31.74-12.448-39.585l-.217-1.212 1.226-.113c27.587-2.545 44.139-17.56 51.55-26.283l.862-1.014.862 1.014c7.408 8.721 23.957 23.732 51.55 26.282l1.225.114-.216 1.21c-1.394 7.837-4.867 23.399-12.445 39.587-10.002 21.36-23.614 36.032-40.459 44.721l-.518.268-.518-.267z" opacity=".15" fill="#000000" class="color000 svgShape"/><path fill="#3cd278" d="M814.88 584.721c-16.6-8.554-30.048-23.05-39.948-44.196-7.559-16.147-11.01-31.75-12.36-39.304 28.292-2.61 45.192-18.3 52.309-26.677 7.114 8.374 24.011 24.06 52.308 26.677-1.345 7.554-4.788 23.139-12.357 39.304-9.895 21.134-23.333 35.623-39.952 44.196z" class="color3cd278 svgShape"/><circle cx="814.129" cy="529.214" r="19.667" opacity=".15" fill="#000000" class="color000 svgShape"/><circle cx="814.129" cy="529.214" r="17.234" fill="#d7e7ff" class="colord7e7ff svgShape"/><circle cx="814.129" cy="529.214" r="16.276" fill="#ffffff" class="colorfff svgShape"/><path fill="#f03232" d="M810.023 537.446c-.478 0-.956-.182-1.32-.547l-4.515-4.515a1.868 1.868 0 1 1 2.642-2.642l3.193 3.193 11.405-11.405a1.868 1.868 0 1 1 2.643 2.643l-12.726 12.726a1.863 1.863 0 0 1-1.322.547z" class="colorf03232 svgShape"/><path d="M859.41 630.792h-86.558c-7.35 0-13.307-5.958-13.307-13.307 0-7.35 5.957-13.307 13.307-13.307h86.558c7.349 0 13.307 5.957 13.307 13.307 0 7.35-5.958 13.307-13.307 13.307z" opacity=".04" fill="#000000" class="color000 svgShape"/><path fill="#719bff" d="M857.965 628.427h-86.558c-7.35 0-13.307-5.957-13.307-13.307 0-7.35 5.957-13.307 13.307-13.307h86.558c7.349 0 13.307 5.958 13.307 13.307 0 7.35-5.958 13.307-13.307 13.307z" class="color719bff svgShape"/><path fill="#ffffff" d="M787.557 620.455a.961.961 0 0 1-.32-.727c0-.093.19-1.347.568-3.757-1.893 1.536-2.885 2.328-2.978 2.375-.141.071-.297.106-.461.106-.401 0-.722-.178-.958-.531a1.117 1.117 0 0 1-.142-.567c0-.403.165-.685.497-.851l3.545-1.384-3.545-1.381c-.332-.19-.497-.485-.497-.888 0-.212.047-.4.142-.567.236-.354.545-.53.923-.53.164 0 .329.047.496.14.093.049 1.085.84 2.978 2.375-.378-2.41-.569-3.662-.569-3.757a.96.96 0 0 1 .32-.726c.214-.2.462-.302.745-.302s.53.101.744.302c.214.2.32.443.32.726 0 .095-.19 1.347-.568 3.757 1.89-1.534 2.882-2.326 2.978-2.374.118-.094.282-.141.496-.141.378 0 .686.176.923.53.092.19.141.367.141.533 0 .402-.167.708-.496.922l-3.546 1.381 3.546 1.384c.329.189.496.485.496.886 0 .166-.049.343-.141.532-.237.353-.557.53-.958.53-.167 0-.32-.034-.461-.105-.096-.047-1.088-.84-2.978-2.375.378 2.41.568 3.664.568 3.757 0 .285-.106.527-.32.727s-.461.302-.744.302-.531-.101-.744-.302zM805.146 620.455a.961.961 0 0 1-.32-.727c0-.093.19-1.347.568-3.757-1.892 1.536-2.885 2.328-2.977 2.375-.141.071-.297.106-.462.106-.4 0-.72-.178-.957-.531a1.117 1.117 0 0 1-.142-.567c0-.403.165-.685.496-.851l3.546-1.384-3.546-1.381c-.331-.19-.496-.485-.496-.888 0-.212.046-.4.142-.567.236-.354.545-.53.923-.53.164 0 .329.047.496.14.092.049 1.085.84 2.977 2.375-.377-2.41-.568-3.662-.568-3.757a.96.96 0 0 1 .32-.726c.214-.2.462-.302.745-.302.282 0 .53.101.744.302.214.2.32.443.32.726 0 .095-.19 1.347-.568 3.757 1.89-1.534 2.882-2.326 2.977-2.374.119-.094.283-.141.497-.141.378 0 .686.176.923.53.092.19.141.367.141.533 0 .402-.167.708-.496.922l-3.546 1.381 3.546 1.384c.329.189.496.485.496.886 0 .166-.049.343-.141.532-.237.353-.557.53-.958.53-.167 0-.32-.034-.462-.105-.095-.047-1.087-.84-2.977-2.375.378 2.41.568 3.664.568 3.757 0 .285-.106.527-.32.727s-.462.302-.744.302c-.283 0-.531-.101-.745-.302zM822.736 620.455a.961.961 0 0 1-.32-.727c0-.093.19-1.347.568-3.757-1.892 1.536-2.885 2.328-2.977 2.375-.141.071-.297.106-.462.106-.4 0-.721-.178-.958-.531a1.117 1.117 0 0 1-.14-.567c0-.403.164-.685.495-.851l3.546-1.384-3.546-1.381c-.331-.19-.496-.485-.496-.888 0-.212.046-.4.141-.567.237-.354.546-.53.924-.53.164 0 .329.047.496.14.092.049 1.085.84 2.977 2.375-.378-2.41-.568-3.662-.568-3.757a.96.96 0 0 1 .32-.726c.214-.2.462-.302.745-.302.282 0 .53.101.744.302.213.2.32.443.32.726 0 .095-.19 1.347-.568 3.757 1.89-1.534 2.882-2.326 2.977-2.374.119-.094.283-.141.496-.141.378 0 .687.176.924.53.092.19.141.367.141.533 0 .402-.167.708-.496.922l-3.546 1.381 3.546 1.384c.329.189.496.485.496.886 0 .166-.049.343-.141.532-.237.353-.557.53-.958.53-.168 0-.32-.034-.462-.105-.095-.047-1.087-.84-2.977-2.375.378 2.41.568 3.664.568 3.757 0 .285-.107.527-.32.727s-.462.302-.744.302c-.283 0-.531-.101-.745-.302zM840.326 620.455a.961.961 0 0 1-.32-.727c0-.093.19-1.347.568-3.757-1.892 1.536-2.885 2.328-2.977 2.375-.142.071-.297.106-.462.106-.4 0-.721-.178-.958-.531a1.117 1.117 0 0 1-.141-.567c0-.403.164-.685.496-.851l3.546-1.384-3.546-1.381c-.332-.19-.496-.485-.496-.888 0-.212.046-.4.141-.567.237-.354.546-.53.924-.53.164 0 .328.047.496.14.092.049 1.085.84 2.977 2.375-.378-2.41-.568-3.662-.568-3.757a.96.96 0 0 1 .32-.726c.214-.2.462-.302.744-.302s.531.101.745.302c.213.2.32.443.32.726 0 .095-.19 1.347-.568 3.757 1.89-1.534 2.882-2.326 2.977-2.374.118-.094.283-.141.496-.141.378 0 .687.176.924.53.092.19.14.367.14.533 0 .402-.166.708-.495.922l-3.546 1.381 3.546 1.384c.329.189.496.485.496.886 0 .166-.05.343-.141.532-.237.353-.557.53-.958.53-.168 0-.32-.034-.462-.105-.095-.047-1.088-.84-2.977-2.375.378 2.41.568 3.664.568 3.757 0 .285-.107.527-.32.727s-.462.302-.745.302-.53-.101-.744-.302z" class="colorfff svgShape"/><path fill="#ffc6b2" d="m182.475 520.627 2.481 8.004 31.375-18.907 4.603 11.563s-29.191 41.039-41.807 38.564c-12.615-2.475-14.727-25.572-14.727-25.572l10.763-9.081 7.312-4.57z" class="colorffc6b2 svgShape"/><path fill="#ffc6b2" d="M216.278 509.785s2.395-8.378 4.021-7.037c1.626 1.342.57 4.106.57 4.106s9.552-11.87 10.486-7.967c.935 3.902-6.463 9.349-6.463 9.349s5.57 4.959 5.122 8.251c-.663 4.881-9.133 4.861-9.133 4.861l-4.603-11.563z" class="colorffc6b2 svgShape"/><path fill="#d250dc" d="M172.04 505.716s9.345 6.6 13.098 19.209c1.345 1.593-12.382 13.178-13.727 11.585l-8.735-9.772 9.365-21.022z" class="colord250dc svgShape"/><path d="M168.098 736.079h36.915v6.138h-36.915zM185.1 720.286l19.913 15.793h-36.915v-15.793z" fill="#000000" class="color000 svgShape"/><path fill="#ffffff" d="M205.018 736.331H186.71a.25.25 0 0 1 0-.5h18.308a.25.25 0 0 1 0 .5zM175.856 740.568c0 .604-.059 1.134-.192 1.65h-.736c0-.03 0-.06.015-.09a6.574 6.574 0 0 0 .177-1.56c0-1.56-.515-3.076-1.458-4.269a2.503 2.503 0 0 0-.19-.22 6.996 6.996 0 0 0-5.374-2.533v-.736c2.4 0 4.71 1.134 6.153 3.047.059.074.104.148.162.222.928 1.265 1.443 2.855 1.443 4.49z" class="colorfff svgShape"/><path d="M111.61 736.079h36.915v6.138H111.61zM128.61 720.286l19.914 15.793H111.61v-15.793z" fill="#000000" class="color000 svgShape"/><path fill="#ffffff" d="M148.53 736.331h-18.308a.25.25 0 0 1 0-.5h18.308a.25.25 0 0 1 0 .5zM119.367 740.568c0 .604-.058 1.134-.191 1.65h-.736c0-.03 0-.06.015-.09a6.575 6.575 0 0 0 .176-1.56c0-1.56-.515-3.076-1.457-4.269a2.506 2.506 0 0 0-.191-.22 6.996 6.996 0 0 0-5.373-2.533v-.736c2.399 0 4.71 1.134 6.153 3.047.058.074.103.148.162.222.927 1.265 1.442 2.855 1.442 4.49z" class="colorfff svgShape"/><path fill="#1258ff" d="M108.286 722.655c3.795 5.837 30.63 3.128 32.384.359.239-.399.687-5.39 1.215-12.87.09-1.096.169-2.252.249-3.447 1.833-26.606 4.482-90.457 4.482-90.457s8.01 63.632 13.169 90.019c.22 1.095.418 2.151.628 3.178 1.524 7.55 2.719 12.58 3.287 12.91 6.843 4.083 24.624 2.13 28.14.378.548-.28.498-3.576-.01-8.945-.07-.867-.17-1.794-.259-2.75-3.307-31.557-17.72-130.083-17.72-130.083s-57.696-5.15-60.037.827l-5.528 140.881z" class="color1258ff svgShape"/><path fill="#ffffff" d="M170.56 712.626c.053-.164 1.282.24 3.821.592 2.145.334 4.34.346 6.488.036 2.54-.324 3.774-.715 3.827-.547.043.11-1.126.754-3.732 1.213-2.214.32-4.475.307-6.685-.037-2.603-.488-3.765-1.146-3.72-1.257zM115.658 711.205c.036-.152 1.608.15 4.755.758 2.655.549 5.35.938 8.042.873 3.175-.035 4.718-.49 4.763-.305.04.095-1.474.815-4.747.977-2.77.066-5.512-.333-8.193-.886-3.152-.735-4.653-1.283-4.62-1.417zM114.323 601.374c-.044-.065.323-.369 1.018-1.003a18.04 18.04 0 0 0 2.77-3.17c1.837-2.592 2.76-5.79 2.651-8.963a17.704 17.704 0 0 0-.57-4.167c-.234-.91-.384-1.362-.305-1.396.056-.025.334.374.686 1.274.345.897.766 2.314.861 4.269.115 3.308-.852 6.66-2.772 9.369-1.16 1.58-2.287 2.533-3.068 3.094-.787.56-1.233.75-1.27.693zM175.863 598.131c-.036.056-.427-.102-1.127-.565-.692-.468-1.704-1.249-2.807-2.543-1.828-2.225-3.029-4.947-3.495-7.782-.239-1.68-.165-2.955-.053-3.784.11-.832.263-1.228.325-1.219.083.012.068.426.075 1.245.005.816.028 2.045.316 3.649.449 2.724 1.6 5.333 3.353 7.465 1.01 1.28 1.925 2.104 2.531 2.652.613.543.926.816.882.882zM148.162 593.237c.063-.032.376.43.918 1.406.528.982 1.337 2.467 2.062 4.625.577 1.834.893 3.792.703 5.742a11.973 11.973 0 0 1-1.959 5.454c-.643.961-1.394 1.649-1.935 2.25-.554.601-.906 1.16-1.082 1.657-.352 1.004-.091 1.558-.187 1.578-.03.046-.471-.514-.196-1.694.135-.574.496-1.244 1.041-1.903.543-.67 1.221-1.342 1.8-2.262a11.3 11.3 0 0 0 1.848-5.146c.18-1.835-.116-3.699-.675-5.475-.644-2.11-1.359-3.624-1.78-4.65-.435-1.024-.627-1.548-.558-1.582zM184.535 679.863c-.141.025-1.289-5.714-3.41-17.356l-5.244-29.612c-2.003-11.65-2.895-17.436-2.75-17.461.145-.026 1.29 5.714 3.412 17.344l5.243 29.612c2.002 11.663 2.898 17.447 2.75 17.473zM116.744 680.008c-.143-.002-.19-5.087-.08-15.366l.43-26.12c.228-10.266.441-15.346.588-15.344.147.002.19 5.087.084 15.356l-.43 26.119c-.232 10.277-.441 15.357-.592 15.355z" class="colorfff svgShape"/><path fill="#d250dc" d="M178.516 582.54c.498-18.44.355-65.352-4.89-74.746-6.85-12.273-49.071-14.122-63.742 0-3.19 3.07-.812 55.674.781 74.512 0 6.108 67.851 6.342 67.851.235z" class="colord250dc svgShape"/><path fill="#ffc6b2" d="m127.26 534.441-.34 7.72 30.03-11.224 1.783 12.087s-36.162 28.235-51.002 22.398c-7.84-3.084-5.173-31.702-5.173-31.702l24.702.721z" class="colorffc6b2 svgShape"/><path fill="#d250dc" d="M115.652 503.717s9.197-.642 11.692 10.775c2.494 11.418 1.567 22.52 1.567 22.52.025.793-28.352 3.526-28.979.932 0 0-.706-28.981 15.72-34.227z" class="colord250dc svgShape"/><path fill="#ffffff" d="M128.942 524.81c.126-.017.48 1.321.656 4.093a50.88 50.88 0 0 1-.22 7.042c-.052.358-.074.635-.147.996-.034.18-.18.446-.408.54-.21.091-.346.087-.474.11a9.245 9.245 0 0 1-1.31.08c-.699-.014-1.04-.103-1.039-.173.001-.077.343-.126 1.012-.228.334-.052.75-.12 1.242-.229.124-.027.26-.055.304-.087.033-.025.043-.039.068-.152.031-.231.052-.599.082-.925.23-2.307.308-4.63.217-6.948-.05-2.738-.148-4.099.017-4.119zM119.288 504.202c.035-.062.347.034.935.308.584.278 1.458.717 2.538 1.483.893.672 1.724 1.471 2.376 2.399.655.924 1.166 1.93 1.568 2.978.851 2.521.662 3.877.555 3.873-.183.024-.26-1.28-1.184-3.634-.755-2.012-1.976-3.824-3.721-5.08-.996-.781-1.811-1.297-2.333-1.673-.526-.372-.772-.589-.734-.654z" class="colorfff svgShape"/><path fill="#ffc6b2" d="M161.84 531.044c.34-.204 2.23-1.819.834-4.3-1.464-2.63-5.72 4.19-5.72 4.19 1.536 1.718 3.102 2.91 4.887.11z" class="colorffc6b2 svgShape"/><path fill="#0039b2" d="m193.358 517.278-11.151 30.326a.88.88 0 0 1-.826.576h-22.504l11.798-32.085h21.858a.88.88 0 0 1 .825 1.183z" class="color0039b2 svgShape"/><path fill="#073c9b" d="m170.675 516.095-11.798 32.085h-2.03a.88.88 0 0 1-.825-1.183l11.151-30.326a.88.88 0 0 1 .825-.576h2.677z" class="color073c9b svgShape"/><path fill="#f0e6ff" d="M179.202 531.314c.143-.024.407.342.448 1.191.028.82-.192 2.207-1.432 3.511-.534.505-1.204.965-2.027 1.144-.406.086-.859.115-1.335-.02a2.048 2.048 0 0 1-1.191-.914c-.506-.916-.34-1.77-.183-2.465a9.13 9.13 0 0 1 .753-1.983c.845-1.449 1.846-2.24 2.543-2.644.712-.399 1.137-.44 1.216-.305.088.148-.169.455-.65 1.004-.47.553-1.179 1.376-1.77 2.644-.513.981-.956 2.434-.615 2.972.13.233.426.333.91.236.456-.092.904-.383 1.309-.763.985-.855 1.37-1.867 1.578-2.52.206-.672.266-1.064.446-1.088z" class="colorf0e6ff svgShape"/><path fill="#ffc6b2" d="m156.953 530.933.047 13.405s11.991 2.415 16.004-7.806c3.917-9.964-11.726-5.355-12.526-5.124l-3.525-.475zM134.605 486.315v12.078l13.652 10.031 1.048-14.613s10.93.907 11.437-5.476c.249-3.143.022-8.382-.086-11.86-.022-.744-.054-1.457-.086-2.116-1.912.583-3.997.583-5.973.237-2.635-.464-5.12-1.512-7.593-2.516-1.555-.626-3.488-1.188-4.752-.097-.81.712-1.026 1.868-1.102 2.948-.065 1.07-.065 2.204-.583 3.143-.53.94-1.674 1.34-2.549.702 0 0-6.06-4.277-8.295 0a5.437 5.437 0 0 0-.335.864v.065h-.021c-.864 3.834 5.238 6.61 5.238 6.61z" class="colorffc6b2 svgShape"/><path fill="#ffc6b2" d="M138.018 471.885v6.891c.875.637 2.02.238 2.549-.702.518-.94.518-2.073.583-3.143.076-1.08.292-2.236 1.102-2.948 1.264-1.091 3.197-.53 4.752.097 2.474 1.004 4.958 2.052 7.593 2.516 1.976.346 4.061.346 5.973-.237-.108-2.55-.227-4.32-.227-4.32s-6.167-5.228-6.805-5.228c-.648 0-10.422 3.1-10.887 3.273-.464.162-4.633 3.801-4.633 3.801z" class="colorffc6b2 svgShape"/><path fill="#253066" d="M144.2 492.207c.039-.07.478.132 1.372.489.748.322 1.53.57 2.325.743.934.227 1.407.294 1.404.37 0 .07-.5.132-1.474-.041a13.061 13.061 0 0 1-2.387-.763c-.894-.423-1.274-.74-1.24-.798zM134.2 482.873c-.018.067-.16.11-.434.065-.267-.05-.685-.182-1.112-.595-.685-.716-.862-2.033-.002-2.808.517-.39 1.04-.359 1.315-.251.287.114.356.272.32.326-.058.145-.59-.11-1.197.435-.495.413-.438 1.34.061 1.846.572.661 1.108.816 1.048.982z" class="color253066 svgShape"/><path fill="#2a0054" d="M134.605 486.315s-6.102-2.776-5.217-6.61v-.065c.087-.27.184-.572.335-.864 2.236-4.277 8.295 0 8.295 0 .875.637 2.02.238 2.549-.702.518-.94.518-2.073.583-3.143.076-1.08.292-2.236 1.102-2.948 1.264-1.091 3.197-.53 4.752.097 2.474 1.004 9.73.245 12.349-.301 10.594-2.21 6.27-15.27-.198-17.187-3.936-1.166-8.067.212-12.168.388-17.612.756-19.93 10.193-20.655 13.564-2.604 12.106 4.718 19.288 8.273 17.771z" class="color2a0054 svgShape"/><path fill="#ffc6b2" d="M1019.07 541.965c0 .363-5.402 4.03-5.595 4.166-.034.022-.386.045-.976.08-3.292.17-13.802.498-13.802.498l-21.622-8.5-18.49-7.279s-.942-5.684-.874-5.888c.057-.193 40.793 8.853 40.793 8.853l11.384-4.109s4.88 1.521 5.403 2.089c.522.579 3.712 9.76 3.78 10.09z" class="colorffc6b2 svgShape"/><path fill="#f4bdab" d="M1013.134 542.499c.012 1.26-.102 2.576-.635 3.711-3.292.17-13.802.5-13.802.5l-21.622-8.502c-2.134-3.632-3.78-7.65-7.117-10.124 9.478 2.304 18.944 4.608 28.421 6.912 2.134.522 4.359 1.044 6.504.556 2.134-.488 4.143-2.327 4.052-4.517l1.078.704a20.853 20.853 0 0 1 3.121 10.76z" class="colorf4bdab svgShape"/><path fill="#ff5252" d="m1024.067 535.472.347 9.323s-6.177 3.262-13.232 4.467c-3.374-5.712-4.633-16.678-2.93-20.007 4.413-3.172 11.33-6.588 11.33-6.588l4.485 12.805z" class="colorff5252 svgShape"/><path d="M995.373 713.412h27.087v4.2h-27.087z" transform="rotate(-.222 1008.911 715.505)" fill="#000000" class="color000 svgShape"/><path d="m995.365 713.465 27.087-.105-.047-11.967-16.822.065z" fill="#000000" class="color000 svgShape"/><path fill="#ffffff" d="M995.361 713.189h14.355v.5h-14.355z" transform="rotate(-.223 1002.55 713.435)" class="colorfff svgShape"/><path fill="#ffffff" d="M1017.155 716.453c.002.413.043.775.135 1.127l.504-.002c0-.02 0-.04-.01-.06a4.5 4.5 0 0 1-.125-1.067 4.722 4.722 0 0 1 .986-2.925c.04-.051.08-.102.13-.152a4.787 4.787 0 0 1 3.67-1.747l-.002-.504a5.302 5.302 0 0 0-4.203 2.102c-.04.05-.07.1-.11.152a5.221 5.221 0 0 0-.975 3.076z" class="colorfff svgShape"/><path d="M1049.702 713.412h27.087v4.2h-27.087z" transform="rotate(-.222 1063.24 715.504)" fill="#000000" class="color000 svgShape"/><path d="m1049.703 713.465 27.086-.105-.047-11.967-16.821.065z" fill="#000000" class="color000 svgShape"/><path fill="#ffffff" d="M1049.699 713.189h14.354v.5h-14.354z" transform="rotate(-.223 1056.887 713.435)" class="colorfff svgShape"/><path fill="#ffffff" d="M1071.492 716.453c.002.413.044.775.136 1.127l.503-.002c0-.02 0-.04-.01-.06a4.5 4.5 0 0 1-.125-1.067 4.72 4.72 0 0 1 .986-2.925c.04-.051.08-.102.13-.152a4.787 4.787 0 0 1 3.67-1.747l-.002-.504a5.302 5.302 0 0 0-4.202 2.102c-.04.05-.07.1-.11.152a5.222 5.222 0 0 0-.976 3.076z" class="colorfff svgShape"/><path fill="#1258ff" d="m1024.325 703.477 10.126-74.22 21.108 73.08c-.067 1.566 23.52 2.505 23.586.939l-10.812-111.486-57.903 1.217-8.745 110.534c.005 1.683 22.645 1.619 22.64-.064z" class="color1258ff svgShape"/><path fill="#ffffff" d="M1016.117 591.085c.06-.025.365.595.849 1.906.421 1.324.935 3.4.89 6.229-.118 4.778-1.944 9.517-5.155 13.075-1.904 2.088-3.698 3.25-4.91 3.925-1.227.667-1.895.87-1.92.814-.038-.078.57-.404 1.712-1.156 1.13-.76 2.817-1.968 4.615-4.03 3.108-3.445 4.869-8.015 4.986-12.647.105-2.738-.301-4.774-.604-6.101-.364-1.317-.539-1.986-.463-2.015zM1067.726 612.367c-.019.057-.551-.02-1.511-.483-.941-.468-2.348-1.366-3.638-3.104-2.155-2.98-2.949-6.672-3.121-10.228a38.482 38.482 0 0 1 .143-4.722c.097-1.04.19-1.554.263-1.551.074.003.118.524.137 1.566.027 1.04.003 2.604.128 4.674.167 3.485.95 7.043 2.994 9.866a11.428 11.428 0 0 0 3.29 3.15c.866.545 1.346.752 1.315.832z" class="colorfff svgShape"/><path fill="#ff5252" d="M1068.933 594.294c.72-13.086 6.377-64.854-3.874-72.305-8.586-7.41-35.898-8.562-47.435 2.302-6.825 6.427-8.036 71.22-7.994 71.84-.218 4.522 59.576 7.074 59.303-1.837z" class="colorff5252 svgShape"/><path fill="#ffc837" d="M1030.914 544.405c-15.707-13.247-39.177-11.244-52.416 4.455-13.24 15.707-11.245 39.177 4.462 52.416 15.708 13.248 39.17 11.245 52.417-4.462 13.24-15.7 11.245-39.17-4.463-52.409zm-39.95 44.405c-8.826-8.818-8.826-23.12 0-31.947 8.818-8.818 23.12-8.818 31.947 0 8.818 8.826 8.818 23.13 0 31.947-8.826 8.826-23.13 8.826-31.947 0z" class="colorffc837 svgShape"/><path fill="#e8af2e" d="M1024.847 554.927c-9.89-9.89-25.93-9.89-35.82 0-9.898 9.89-9.898 25.93 0 35.828 9.89 9.89 25.93 9.89 35.82 0 9.89-9.898 9.89-25.938 0-35.828zm-1.936 33.883c-8.826 8.826-23.13 8.826-31.947 0-8.826-8.818-8.826-23.12 0-31.947 8.818-8.818 23.12-8.818 31.947 0 8.818 8.826 8.818 23.13 0 31.947z" class="colore8af2e svgShape"/><path fill="#ffc837" d="M976.86 557.02 913.07 493.23a10.081 10.081 0 0 1 0-14.26 10.081 10.081 0 0 1 14.26 0l63.792 63.791-14.26 14.26z" class="colorffc837 svgShape"/><path fill="#ffc837" d="m907.73 503.171 11.741-11.742 9.143 9.143-11.742 11.742a6.465 6.465 0 1 1-9.143-9.143zM925.748 512.94l7.617-7.616 9.143 9.142-7.617 7.618a6.465 6.465 0 0 1-9.143-9.143z" class="colorffc837 svgShape"/><path fill="#ffc6b2" d="M1056.863 549.924c-.71.562-15.408 13.218-22.629 14.185-12.409 1.658-43.502-18.97-43.502-18.97s-12.67-.157-12.137-7.742c.532-7.586 11.585-1.431 11.585-1.431l39.083 4.33 14.915-6.56 12.685 16.188z" class="colorffc6b2 svgShape"/><path fill="#ff5252" d="M1069.249 534.845c-1.004 6.14-13.428 16.792-13.428 16.792-.331.262-14.066-17.91-13.735-18.174.289-.226 11.15-10.18 12.504-11.171a8.29 8.29 0 0 1 3.133-1.436c4.64-1.092 9.257 1.882 10.72 6.424.72 2.233 1.23 4.941.806 7.565z" class="colorff5252 svgShape"/><path fill="#ffffff" d="M1053.525 522.749c-.038-.04.39-.554 1.539-1.205a10.21 10.21 0 0 1 3.158-1.05c1.309-.165 1.959-.01 1.953.047-.002.09-.646.066-1.9.286a9.87 9.87 0 0 0-3.055 1.015c-1.137.574-1.64.978-1.695.907zM1048.216 528.383c.043.063-.62.57-1.947 1.597a54.789 54.789 0 0 0-3.306 2.693c-.318.262-.542.519-.599.784-.06.268-.003.513.074.686.167.351.372.448.346.488-.002.024-.264-.007-.522-.393a1.226 1.226 0 0 1-.171-.834c.052-.369.334-.704.649-.983a55.172 55.172 0 0 1 3.327-2.71c1.373-.985 2.11-1.386 2.149-1.328z" class="colorfff svgShape"/><path fill="#ffc6b2" d="M1037.05 509.458c1.172 1.441.513 4.271.399 6.886-.946 3.485 11.257 5.218 13.138.941-.84-3.897-.494-9.105.645-13.092 1.14-3.987-14.181 5.265-14.181 5.265z" class="colorffc6b2 svgShape"/><path fill="#ffc6b2" d="M1036.427 510.146c5.646 3.157 11.795-2.588 14.2-5.265a20.091 20.091 0 0 0 1.031-1.204c.148-.185 5.07-1.365 3.82-5.576-.645-2.204-4.881-.147-4.881-.147s-1.841-8.215-5.48-8.655c-3.64-.443-9.901 4.303-9.901 4.303s-.158.517-.326 1.366c-.771 3.583-2.38 12.974 1.537 15.178z" class="colorffc6b2 svgShape"/><path fill="#2a0054" d="M1031.295 493.059c.483 1.295 1.843 1.81 3.595 1.91 3.93.26 9.728-1.701 11.2-1.752 2.09-.127 2.229 4.764 2.69 5.204.509.442 1.817-.467 1.817-.467s4.236-2.057 4.881.147c1.25 4.211-3.672 5.39-3.82 5.576 0 0-.394.512-1.032 1.204l-.061 2.622s6.44-6.559 7.421-9.186c1.027-2.626-2.135-6.325-3.261-6.738-1.128-.365.481-8.146-.507-9.977-.99-1.786-8.594.263-11.409.797-2.816.578-6.517-.955-9.943.98-3.426 1.939-3.152 5.458-1.571 9.68zM1039.88 511.126c-.788 0-1.576-.11-2.334-.336l.07-.239a8.096 8.096 0 0 0 5.897-.532l.113.222a8.321 8.321 0 0 1-3.746.885z" class="color2a0054 svgShape"/><path fill="#ffffff" d="M1052.501 517.636s-7.505 6.801-7.644 6.797c-.02-.081-3.085-5.015-3.085-5.015l8.422-4.956c.01.093 2.307 3.174 2.307 3.174z" class="colorfff svgShape"/><path fill="#ffffff" d="M1041.818 519.56s-5.188 3.933-3.702 3.134c.072-.038-3.372-5.748-3.372-5.748l2.843-2.443 4.185 4.915M1062.893 545.804c.05.05-.507.694-1.704 1.923l-3.095 3.07c-.305.292-.587.571-.902.73-.31.165-.64.176-.86.106-.474-.15-.508-.473-.477-.461.038-.03.131.203.52.266.404.097.913-.229 1.482-.88l3.096-3.07c1.24-1.185 1.887-1.738 1.94-1.684zM1030.31 605.643c.143.008.147 2.342-.047 7.05l-.322 5.976-.08 1.495-.04.746c-.006.215.014.43.067.637.212.836 1.012 1.477 1.873 1.503.083.005.306.002.46-.009l1.185 2.976.748 1.984c.383 1.063.538 1.607.471 1.635-.066.028-.345-.464-.835-1.482l-.89-1.925-1.117-2.51c-.016 0 .035.003-.052.003-1.15-.036-2.209-.885-2.492-2a2.946 2.946 0 0 1-.09-.847l.04-.747.08-1.495.323-5.977c.316-4.701.567-7.02.717-7.013zM1075.066 688.147c-.035.009-.15-.315-.345-.974a92.304 92.304 0 0 1-.816-2.986 182.311 182.311 0 0 1-2.716-12.138c-1.704-9.249-2.484-18.616-3.497-27.932-.549-5.503-.934-9.619-1.164-12.36-.115-1.372-.19-2.4-.229-3.085-.038-.686-.039-1.03-.002-1.034.037-.004.108.333.213 1.012s.244 1.7.417 3.065c.345 2.73.824 6.835 1.434 12.332 1.014 9.323 1.793 18.674 3.49 27.883.961 5.44 1.873 9.474 2.443 12.165l.633 3.028c.13.674.176 1.015.14 1.024zM1074.544 696.373c0 .134-1.292.284-3.904.176a70.957 70.957 0 0 1-6.592-.75c-2.567-.48-3.792-.917-3.762-1.052.034-.153 1.308.032 3.869.388 2.163.35 4.343.597 6.53.743 2.578.23 3.86.335 3.86.495zM1007.287 695.32c-.036-.002-.05-.377-.04-1.129.01-.751.041-1.878.098-3.383.13-3.01.359-7.531.809-13.572.803-10.232 1.857-20.442 3.038-30.634a689.354 689.354 0 0 1 1.743-13.47c.212-1.49.381-2.605.506-3.345s.206-1.108.243-1.104c.036.005.026.38-.032 1.13-.058.748-.165 1.87-.32 3.367l-1.472 13.499c-1.18 10.187-2.233 20.388-3.036 30.61l-1.079 13.542c-.115 1.501-.21 2.625-.287 3.372-.076.747-.133 1.12-.171 1.117z" class="colorfff svgShape"/><path fill="#ffc6b2" d="M956.366 532.32a5.398 5.398 0 0 1-1.077 7.558c-2.382 1.787-8.862-6.848-6.48-8.635a5.395 5.395 0 0 1 7.557 1.077z" class="colorffc6b2 svgShape"/><path fill="#ffc837" d="M328.607 389.33v53.93c0 3.2-2.6 5.79-5.8 5.79h-73l-18.608 9.34-2.452-9.34h-2.5c-3.19 0-5.79-2.59-5.79-5.79v-53.93c0-3.2 2.6-5.79 5.79-5.79h96.56c3.2 0 5.8 2.59 5.8 5.79z" class="colorffc837 svgShape"/><path d="M308.634 437.045H245.03c-5.77 0-10.446-4.677-10.446-10.446 0-5.768 4.677-10.445 10.446-10.445h63.604c5.769 0 10.445 4.677 10.445 10.445 0 5.77-4.676 10.446-10.445 10.446z" opacity=".15" fill="#000000" class="color000 svgShape"/><path fill="#ffffff" d="M306.334 435.273H242.73c-5.77 0-10.446-4.677-10.446-10.445 0-5.77 4.677-10.446 10.446-10.446h63.604c5.769 0 10.445 4.677 10.445 10.446 0 5.768-4.676 10.445-10.445 10.445z" class="colorfff svgShape"/><path fill="#829ed9" d="M253.68 429.99a.93.93 0 0 1-.31-.704c0-.09.184-1.304.55-3.636-1.831 1.487-2.791 2.253-2.88 2.299a.99.99 0 0 1-.447.102c-.388 0-.698-.172-.927-.514a1.081 1.081 0 0 1-.137-.548c0-.39.16-.663.48-.824l3.43-1.338-3.43-1.337c-.32-.183-.48-.47-.48-.858 0-.206.045-.388.137-.549.229-.343.528-.514.893-.514.16 0 .319.046.48.137.09.046 1.05.812 2.881 2.297-.366-2.332-.55-3.543-.55-3.635a.93.93 0 0 1 .31-.702 1.02 1.02 0 0 1 .72-.292c.274 0 .514.098.72.292a.93.93 0 0 1 .31.702c0 .092-.184 1.303-.55 3.635 1.829-1.485 2.789-2.25 2.88-2.297.115-.09.274-.137.48-.137.367 0 .665.17.894.514.09.183.137.355.137.515a1 1 0 0 1-.48.892l-3.43 1.337 3.43 1.338c.318.183.48.47.48.857 0 .16-.048.332-.137.515-.229.342-.539.514-.927.514a.981.981 0 0 1-.446-.102c-.092-.046-1.052-.812-2.88-2.299.365 2.332.55 3.545.55 3.636a.93.93 0 0 1-.31.703 1.02 1.02 0 0 1-.72.292 1.02 1.02 0 0 1-.721-.292zM267.101 429.99a.93.93 0 0 1-.31-.704c0-.09.184-1.304.55-3.636-1.831 1.487-2.791 2.253-2.88 2.299a.99.99 0 0 1-.447.102c-.388 0-.698-.172-.927-.514a1.081 1.081 0 0 1-.137-.548c0-.39.16-.663.48-.824l3.431-1.338-3.43-1.337c-.322-.183-.48-.47-.48-.858 0-.206.044-.388.136-.549.229-.343.528-.514.893-.514.16 0 .319.046.48.137.09.046 1.05.812 2.881 2.297-.366-2.332-.55-3.543-.55-3.635a.93.93 0 0 1 .31-.702 1.02 1.02 0 0 1 .72-.292c.274 0 .514.098.72.292a.93.93 0 0 1 .31.702c0 .092-.184 1.303-.55 3.635 1.829-1.485 2.789-2.25 2.88-2.297.115-.09.274-.137.481-.137.366 0 .664.17.893.514.09.183.137.355.137.515a1 1 0 0 1-.48.892l-3.43 1.337 3.43 1.338c.318.183.48.47.48.857 0 .16-.047.332-.137.515-.229.342-.539.514-.927.514a.981.981 0 0 1-.446-.102c-.092-.046-1.052-.812-2.88-2.299.365 2.332.55 3.545.55 3.636a.93.93 0 0 1-.31.703 1.02 1.02 0 0 1-.72.292 1.02 1.02 0 0 1-.721-.292zM280.522 429.99a.93.93 0 0 1-.31-.704c0-.09.184-1.304.55-3.636-1.831 1.487-2.791 2.253-2.88 2.299a.99.99 0 0 1-.447.102c-.388 0-.698-.172-.927-.514a1.081 1.081 0 0 1-.137-.548c0-.39.16-.663.48-.824l3.431-1.338-3.43-1.337c-.321-.183-.48-.47-.48-.858 0-.206.044-.388.136-.549.23-.343.528-.514.893-.514.16 0 .319.046.48.137.09.046 1.05.812 2.881 2.297-.366-2.332-.55-3.543-.55-3.635 0-.274.104-.508.31-.702s.447-.292.72-.292.514.098.72.292.31.428.31.702c0 .092-.184 1.303-.55 3.635 1.829-1.485 2.789-2.25 2.88-2.297.115-.09.274-.137.481-.137.366 0 .664.17.893.514.09.183.137.355.137.515a1 1 0 0 1-.48.892l-3.43 1.337 3.43 1.338c.318.183.48.47.48.857 0 .16-.047.332-.137.515-.229.342-.538.514-.926.514a.981.981 0 0 1-.447-.102c-.092-.046-1.052-.812-2.88-2.299.365 2.332.55 3.545.55 3.636a.93.93 0 0 1-.31.703c-.207.194-.447.292-.72.292s-.514-.098-.72-.292zM293.943 429.99a.93.93 0 0 1-.31-.704c0-.09.185-1.304.55-3.636-1.83 1.487-2.791 2.253-2.88 2.299a.99.99 0 0 1-.447.102c-.388 0-.698-.172-.927-.514a1.081 1.081 0 0 1-.137-.548c0-.39.16-.663.48-.824l3.431-1.338-3.43-1.337c-.321-.183-.48-.47-.48-.858 0-.206.044-.388.136-.549.23-.343.528-.514.893-.514.16 0 .319.046.48.137.09.046 1.05.812 2.881 2.297-.365-2.332-.55-3.543-.55-3.635 0-.274.104-.508.31-.702s.447-.292.72-.292c.274 0 .514.098.72.292a.93.93 0 0 1 .31.702c0 .092-.184 1.303-.55 3.635 1.829-1.485 2.789-2.25 2.881-2.297.114-.09.274-.137.48-.137.366 0 .664.17.893.514.09.183.137.355.137.515a1 1 0 0 1-.48.892l-3.43 1.337 3.43 1.338c.318.183.48.47.48.857 0 .16-.047.332-.137.515-.229.342-.538.514-.926.514a.981.981 0 0 1-.447-.102c-.092-.046-1.052-.812-2.88-2.299.365 2.332.55 3.545.55 3.636a.93.93 0 0 1-.31.703 1.02 1.02 0 0 1-.72.292 1.02 1.02 0 0 1-.72-.292z" class="color829ed9 svgShape"/><path d="M265.704 397.122c-1.017-.596-2.218-.898-3.569-.898s-2.556.302-3.579.898a6.191 6.191 0 0 0-2.385 2.482c-.553 1.044-.847 2.256-.873 3.612.026 1.346.32 2.558.873 3.602a6.183 6.183 0 0 0 2.385 2.483c1.022.595 2.226.897 3.58.897 1.351 0 2.553-.302 3.568-.897a6.25 6.25 0 0 0 2.385-2.491c.56-1.051.857-2.26.883-3.604-.026-1.334-.322-2.543-.883-3.593a6.256 6.256 0 0 0-2.385-2.491zm-3.569 10.965c-.958 0-1.792-.214-2.479-.636a4.217 4.217 0 0 1-1.58-1.732c-.368-.734-.555-1.578-.555-2.508 0-.93.187-1.773.554-2.508a4.217 4.217 0 0 1 1.581-1.732c.687-.422 1.52-.636 2.48-.636.946 0 1.777.214 2.469.637a4.193 4.193 0 0 1 1.59 1.731c.368.736.554 1.58.554 2.508 0 .928-.186 1.772-.554 2.508a4.193 4.193 0 0 1-1.59 1.731c-.693.423-1.524.637-2.47.637zM280.051 396.412h-9.333a.998.998 0 0 0-.75.314 1.052 1.052 0 0 0-.296.75c0 .295.101.547.3.746s.451.3.746.3h3.564v10.48c0 .308.107.571.32.783.212.212.475.32.782.32a1.1 1.1 0 0 0 .788-.317c.221-.212.333-.476.333-.786v-10.48h3.546c.293 0 .546-.1.75-.297.209-.2.315-.452.315-.749a1.03 1.03 0 0 0-.31-.754 1.027 1.027 0 0 0-.755-.31zM293.249 398.688c-.349-.67-.927-1.224-1.72-1.646-.783-.418-1.802-.63-3.027-.63h-4.272c-.31 0-.575.111-.786.332-.21.217-.317.482-.317.789v11.469c0 .308.108.571.32.783.213.212.476.32.783.32.304 0 .57-.107.79-.317.22-.213.331-.477.331-.786v-3.751h3.151c1.225 0 2.244-.212 3.027-.63.793-.423 1.371-.977 1.72-1.647.343-.66.517-1.38.517-2.143 0-.762-.174-1.483-.517-2.143zm-1.707 2.143c0 .656-.228 1.189-.695 1.63-.468.437-1.313.66-2.513.66h-2.983v-4.58h2.983c1.2 0 2.045.222 2.513.66.467.441.695.974.695 1.63z" fill="#000000" class="color000 svgShape"/><path fill="#719bff" d="m998.925 335.953 28.937-47.621-57.23 15.082a.05.05 0 0 0-.026.083l28.237 32.463a.05.05 0 0 0 .082-.007z" class="color719bff svgShape"/><path fill="#5388f2" d="m1024.576 291.103-36.698 32.244a.056.056 0 0 0-.006.007l-5.754 7.174a.05.05 0 0 1-.09-.027l-1.489-15.555c-.002-.02.008-.04 2.14-1.237l41.897-22.606z" class="color5388f2 svgShape"/><path fill="#5388f2" d="m982.218 330.554 8.79-3.499a.05.05 0 0 0 .02-.08l-3.113-3.579a.05.05 0 0 0-.078.002l-5.677 7.077c-.033.04.01.098.058.08z" class="color5388f2 svgShape"/><circle cx="257.831" cy="222.721" r="28.562" fill="#d250dc" class="colord250dc svgShape"/><g transform="translate(-649 -408)"><path fill="#ffffff" d="M249.347 210.374a.942.942 0 0 1 .367-1.256c3.427-1.86 7.188-2.814 11.144-2.814 3.924 0 7.35.864 11.103 2.798a.902.902 0 0 1 .392 1.232.903.903 0 0 1-.808.522.825.825 0 0 1-.424-.114c-3.54-1.82-6.6-2.595-10.263-2.595-3.647 0-7.106.865-10.255 2.595a.944.944 0 0 1-1.256-.368zM275.959 229.603c0 2.986-2.537 5.417-5.67 5.417s-5.67-2.43-5.67-5.417c0-1.974-1.713-3.573-3.834-3.573s-3.827 1.599-3.827 3.573c0 3.15 1.216 6.094 3.443 8.305 1.746 1.73 3.427 2.693 6.021 3.41a.91.91 0 0 1 .645 1.118.9.9 0 0 1-.865.702c-.074 0-.163-.017-.245-.033-2.92-.816-4.838-1.9-6.845-3.867a13.454 13.454 0 0 1-3.997-9.618c0-2.986 2.537-5.417 5.67-5.417 3.132 0 5.67 2.43 5.67 5.417 0 1.974 1.713 3.573 3.834 3.573s3.834-1.6 3.834-3.573c0-6.943-5.988-12.58-13.355-12.58-5.229 0-10.018 2.912-12.172 7.424-.717 1.493-1.093 3.238-1.093 5.156 0 1.435.13 3.703 1.24 6.649a.908.908 0 0 1-.538 1.182.91.91 0 0 1-1.175-.538c-.905-2.415-1.346-4.805-1.346-7.293 0-2.211.424-4.218 1.248-5.964 2.456-5.14 7.89-8.476 13.836-8.476 8.379 0 15.19 6.47 15.19 14.423z" transform="translate(646 406)" class="colorfff svgShape"/><path fill="#ffffff" d="M277.011 220.303a.918.918 0 0 1-1.289-.22 17.301 17.301 0 0 0-6.24-5.417c-5.287-2.709-12.05-2.709-17.312.016-2.513 1.289-4.61 3.133-6.266 5.45-.147.26-.424.391-.718.391-.187 0-.367-.057-.538-.163a.928.928 0 0 1-.22-1.289c1.827-2.586 4.144-4.61 6.91-6.029 5.784-2.978 13.183-3.002 18.992-.016a19.113 19.113 0 0 1 6.902 5.988c.293.4.204.995-.22 1.289zM272.883 238.055a.911.911 0 0 1-.75 1.069c-1.053.204-1.974.22-2.227.22-2.195 0-4.128-.555-5.711-1.64-2.75-1.86-4.39-4.878-4.39-8.084 0-.514.409-.922.923-.922a.91.91 0 0 1 .921.922c0 2.594 1.33 5.05 3.574 6.559 1.305.88 2.839 1.305 4.683 1.305.44 0 1.174-.057 1.908-.18a.911.911 0 0 1 1.07.751z" transform="translate(646 406)" class="colorfff svgShape"/><path fill="#ffffff" d="M257.375 241.172a.94.94 0 0 1 0 1.305.978.978 0 0 1-.677.277.852.852 0 0 1-.645-.277c-1.607-1.6-2.472-2.635-3.704-4.862-1.273-2.268-1.933-5.026-1.933-7.995 0-5.466 4.674-9.929 10.426-9.929 5.743 0 10.426 4.463 10.426 9.929a.916.916 0 0 1-.922.921.916.916 0 0 1-.922-.921c0-4.455-3.85-8.085-8.582-8.085-4.732 0-8.582 3.63-8.582 8.085 0 2.651.587 5.098 1.713 7.089 1.174 2.121 1.99 3.027 3.402 4.463z" transform="translate(646 406)" class="colorfff svgShape"/></g></svg>